# Blender 4.0.2
# www.blender.org
mtllib silly_ship.mtl
o Cube
v 0.860451 0.602785 -2.284891
v 0.860451 -0.602785 -2.284891
v 1.256935 -0.667750 3.361533
v 1.256935 -0.880540 3.361533
v -0.860451 0.602785 -2.284891
v -0.860451 -0.602785 -2.284891
v -1.256935 -0.667750 3.361533
v -1.256935 -0.880540 3.361533
v 1.427459 -1.000000 -2.518480
v -1.427459 -1.000000 -2.518480
v 1.427459 1.000000 -2.518480
v -1.427459 1.000000 -2.518480
v -1.427459 -1.000000 3.507486
v -1.427459 -0.548290 3.507486
v 1.427459 -0.548290 3.507486
v 1.427459 -1.000000 3.507486
vn -0.0000 0.9685 0.2489
vn -0.0000 -0.0000 1.0000
vn -1.0000 -0.0000 -0.0000
vn -0.0000 -1.0000 -0.0000
vn 1.0000 -0.0000 -0.0000
vn -0.0000 -0.0000 -1.0000
vn -0.0000 0.5069 -0.8620
vn -0.3809 -0.0000 -0.9246
vn 0.3809 -0.0000 -0.9246
vn -0.0000 -0.5069 -0.8620
vn 0.6502 -0.0000 0.7597
vn -0.6502 -0.0000 0.7597
vn -0.0000 -0.7738 0.6334
vn -0.0000 0.7738 0.6334
vn -0.6503 -0.0000 0.7597
vt 0.875000 0.500000
vt 0.625000 0.750000
vt 0.625000 0.500000
vt 0.558884 0.764933
vt 0.441116 0.985068
vt 0.441116 0.764933
vt 0.625000 0.000000
vt 0.375000 0.250000
vt 0.375000 0.000000
vt 0.375000 0.500000
vt 0.125000 0.750000
vt 0.125000 0.500000
vt 0.375000 0.750000
vt 0.575348 0.299652
vt 0.424652 0.450348
vt 0.424652 0.299652
vt 0.575348 0.450348
vt 0.625000 0.250000
vt 0.558884 0.985067
vt 0.375000 1.000000
vt 0.625000 1.000000
vt 0.875000 0.750000
s 0
usemtl Material
f 12/1/1 15/2/1 11/3/1
f 9/10/4 13/11/4 10/12/4
f 2/15/7 10/8/7 6/16/7
f 1/17/8 9/10/8 2/15/8
f 6/16/9 12/18/9 5/14/9
f 5/14/10 11/3/10 1/17/10
f 7/19/11 13/20/11 8/5/11
f 4/6/12 15/2/12 3/4/12
f 3/4/13 14/21/13 7/19/13
f 8/5/14 16/13/14 4/6/14
f 12/1/1 14/22/1 15/2/1
f 9/10/4 16/13/4 13/11/4
f 2/15/7 9/10/7 10/8/7
f 1/17/8 11/3/8 9/10/8
f 6/16/9 10/8/9 12/18/9
f 5/14/10 12/18/10 11/3/10
f 7/19/11 14/21/11 13/20/11
f 4/6/15 16/13/15 15/2/15
f 3/4/13 15/2/13 14/21/13
f 8/5/14 13/20/14 16/13/14
usemtl Material.001
f 14/7/3 10/8/3 13/9/3
f 9/10/5 15/2/5 16/13/5
f 5/14/6 2/15/6 6/16/6
f 14/7/3 12/18/3 10/8/3
f 9/10/5 11/3/5 15/2/5
f 5/14/6 1/17/6 2/15/6
usemtl Material.002
f 3/4/2 8/5/2 4/6/2
f 3/4/2 7/19/2 8/5/2
