# Blender 4.0.2
# www.blender.org
mtllib smiley.mtl
o Sphere
v -0.000000 0.976074 -0.193216
v 0.000000 0.919442 -0.379007
v 0.000000 0.827475 -0.550233
v 0.000000 0.703710 -0.700313
v 0.000000 0.552901 -0.823481
v 0.000000 0.380845 -0.915003
v 0.000000 0.194153 -0.971362
v 0.000000 0.000000 -0.990393
v 0.000000 -0.194153 -0.971362
v 0.000000 -0.827476 -0.550232
v 0.037695 0.976074 -0.189503
v 0.073941 0.919442 -0.371724
v 0.107345 0.827475 -0.539660
v 0.136624 0.703710 -0.686857
v 0.160653 0.552901 -0.807658
v 0.178508 0.380845 -0.897422
v 0.189503 0.194153 -0.952698
v 0.193216 0.000000 -0.971362
v 0.189503 -0.194153 -0.952698
v 0.178508 -0.380845 -0.897422
v 0.160653 -0.552901 -0.807658
v 0.136624 -0.703710 -0.686857
v 0.107345 -0.827476 -0.539660
v 0.073941 -0.919442 -0.371724
v 0.037695 -0.976074 -0.189503
v 0.073941 0.976074 -0.178508
v 0.145040 0.919442 -0.350157
v 0.210565 0.827475 -0.508349
v 0.267998 0.703710 -0.647005
v 0.315133 0.552901 -0.760798
v 0.350157 0.380845 -0.845353
v 0.371724 0.194153 -0.897422
v 0.379007 0.000000 -0.915003
v 0.371724 -0.194153 -0.897422
v 0.350157 -0.380845 -0.845353
v 0.315133 -0.552901 -0.760798
v 0.267998 -0.703710 -0.647005
v 0.210565 -0.827476 -0.508349
v 0.145040 -0.919442 -0.350157
v 0.073941 -0.976074 -0.178508
v 0.107345 0.976074 -0.160653
v 0.210565 0.919442 -0.315133
v 0.305693 0.827475 -0.457502
v 0.389073 0.703710 -0.582289
v 0.457502 0.552901 -0.684700
v 0.508349 0.380845 -0.760797
v 0.539660 0.194153 -0.807658
v 0.550233 0.000000 -0.823481
v 0.539660 -0.194153 -0.807658
v 0.508349 -0.380845 -0.760798
v 0.457502 -0.552901 -0.684700
v 0.389073 -0.703710 -0.582289
v 0.305693 -0.827476 -0.457502
v 0.210565 -0.919442 -0.315132
v 0.107345 -0.976074 -0.160653
v 0.136625 0.976074 -0.136624
v 0.267999 0.919442 -0.267998
v 0.389073 0.827475 -0.389073
v 0.495197 0.703710 -0.495196
v 0.582289 0.552901 -0.582289
v 0.647005 0.380845 -0.647005
v 0.686857 0.194153 -0.686857
v 0.700314 0.000000 -0.700313
v 0.686857 -0.194153 -0.686857
v 0.647005 -0.380845 -0.647005
v 0.582289 -0.552901 -0.582289
v 0.495197 -0.703710 -0.495196
v 0.389073 -0.827476 -0.389073
v 0.267998 -0.919442 -0.267998
v 0.136624 -0.976074 -0.136624
v 0.160653 0.976074 -0.107345
v 0.315133 0.919442 -0.210565
v 0.457502 0.827475 -0.305693
v 0.582289 0.703710 -0.389073
v 0.684700 0.552901 -0.457502
v 0.760798 0.380845 -0.508349
v 0.807659 0.194153 -0.539660
v 0.823482 0.000000 -0.550232
v 0.807659 -0.194153 -0.539660
v 0.760798 -0.380845 -0.508349
v 0.684700 -0.552901 -0.457502
v 0.582289 -0.703710 -0.389073
v 0.457502 -0.827476 -0.305693
v 0.315133 -0.919442 -0.210565
v 0.160653 -0.976074 -0.107345
v 0.178509 0.976074 -0.073940
v 0.350157 0.919442 -0.145039
v 0.508349 0.827475 -0.210565
v 0.647005 0.703710 -0.267998
v 0.760798 0.552901 -0.315132
v 0.845353 0.380845 -0.350156
v 0.897422 0.194153 -0.371724
v 0.915004 0.000000 -0.379007
v 0.897422 -0.194153 -0.371724
v 0.845353 -0.380845 -0.350156
v 0.760798 -0.552901 -0.315132
v 0.647005 -0.703710 -0.267998
v 0.508349 -0.827476 -0.210565
v 0.350157 -0.919442 -0.145039
v 0.178508 -0.976074 -0.073940
v 0.189504 0.976074 -0.037694
v 0.371725 0.919442 -0.073940
v 0.539660 0.827475 -0.107345
v 0.686857 0.703710 -0.136624
v 0.807659 0.552901 -0.160653
v 0.897422 0.380845 -0.178508
v 0.952698 0.194153 -0.189503
v 0.971363 0.000000 -0.193216
v 0.952698 -0.194153 -0.189503
v 0.897422 -0.380845 -0.178508
v 0.807659 -0.552901 -0.160653
v 0.686857 -0.703710 -0.136624
v 0.539660 -0.827476 -0.107345
v 0.371724 -0.919442 -0.073940
v 0.189503 -0.976074 -0.037694
v 0.193216 0.976074 0.000000
v 0.379007 0.919442 0.000000
v 0.550233 0.827475 0.000000
v 0.700314 0.703710 0.000000
v 0.823482 0.552901 0.000000
v 0.915004 0.380845 0.000000
v 0.971363 0.194153 0.000000
v 0.990393 0.000000 0.000000
v 0.971363 -0.194153 0.000000
v 0.915004 -0.380845 0.000000
v 0.823482 -0.552901 0.000000
v 0.700314 -0.703710 0.000000
v 0.550233 -0.827476 0.000000
v 0.379007 -0.919442 0.000000
v 0.193216 -0.976074 0.000000
v 0.189504 0.976074 0.037695
v 0.371725 0.919442 0.073941
v 0.539660 0.827475 0.107345
v 0.686857 0.703710 0.136625
v 0.807659 0.552901 0.160654
v 0.897422 0.380845 0.178509
v 0.952698 0.194153 0.189504
v 0.971363 0.000000 0.193216
v 0.952698 -0.194153 0.189504
v 0.897422 -0.380845 0.178509
v 0.807659 -0.552901 0.160654
v 0.686857 -0.703710 0.136625
v 0.539660 -0.827476 0.107345
v 0.371724 -0.919442 0.073941
v 0.189503 -0.976074 0.037695
v 0.178509 0.976074 0.073941
v 0.350157 0.919442 0.145040
v 0.508349 0.827475 0.210565
v 0.647005 0.703710 0.267999
v 0.760798 0.552901 0.315133
v 0.845353 0.380845 0.350157
v 0.897422 0.194153 0.371725
v 0.915004 0.000000 0.379007
v 0.897422 -0.194153 0.371725
v 0.845353 -0.380845 0.350157
v 0.760798 -0.552901 0.315133
v 0.647005 -0.703710 0.267999
v 0.508349 -0.827476 0.210565
v 0.350157 -0.919442 0.145040
v 0.178508 -0.976074 0.073941
v 0.160653 0.976074 0.107346
v 0.315133 0.919442 0.210565
v 0.457502 0.827475 0.305693
v 0.582289 0.703710 0.389074
v 0.684700 0.552901 0.457502
v 0.760798 0.380845 0.508349
v 0.807658 0.194153 0.539660
v 0.823481 0.000000 0.550233
v 0.807658 -0.194153 0.539660
v 0.760798 -0.380845 0.508349
v 0.684700 -0.552901 0.457502
v 0.582289 -0.703710 0.389074
v 0.457502 -0.827476 0.305693
v 0.315133 -0.919442 0.210565
v 0.160653 -0.976074 0.107345
v 0.136624 0.976074 0.136625
v 0.267998 0.919442 0.267999
v 0.389073 0.827475 0.389074
v 0.495196 0.703710 0.495197
v 0.582289 0.552901 0.582290
v 0.647005 0.380845 0.647005
v 0.686857 0.194153 0.686857
v 0.700313 0.000000 0.700314
v 0.686857 -0.194153 0.686857
v 0.647005 -0.380845 0.647005
v 0.582289 -0.552901 0.582290
v 0.495196 -0.703710 0.495197
v 0.389073 -0.827476 0.389074
v 0.267998 -0.919442 0.267999
v 0.136624 -0.976074 0.136625
v 0.107345 0.976074 0.160654
v 0.210565 0.919442 0.315133
v 0.305693 0.827475 0.457502
v 0.389073 0.703710 0.582290
v 0.457502 0.552901 0.684700
v 0.508349 0.380845 0.760798
v 0.539660 0.194153 0.807659
v 0.550233 0.000000 0.823482
v 0.539660 -0.194153 0.807659
v 0.508349 -0.380845 0.760798
v 0.457502 -0.552901 0.684700
v 0.389073 -0.703710 0.582290
v 0.305693 -0.827476 0.457502
v 0.210565 -0.919442 0.315133
v 0.107345 -0.976074 0.160654
v 0.000000 -0.990393 0.000000
v 0.073941 0.976074 0.178509
v 0.145040 0.919442 0.350157
v 0.210565 0.827475 0.508349
v 0.267998 0.703710 0.647005
v 0.315133 0.552901 0.760798
v 0.350157 0.380845 0.845353
v 0.371724 0.194153 0.897422
v 0.379007 0.000000 0.915004
v 0.371724 -0.194153 0.897422
v 0.350157 -0.380845 0.845353
v 0.315133 -0.552901 0.760798
v 0.267998 -0.703710 0.647005
v 0.210565 -0.827476 0.508349
v 0.145040 -0.919442 0.350157
v 0.073941 -0.976074 0.178509
v 0.037695 0.976074 0.189504
v 0.073941 0.919442 0.371725
v 0.107345 0.827475 0.539661
v 0.136624 0.703710 0.686857
v 0.160653 0.552901 0.807659
v 0.178508 0.380845 0.897422
v 0.189503 0.194153 0.952698
v 0.193216 0.000000 0.971363
v 0.189503 -0.194153 0.952698
v 0.178508 -0.380845 0.897422
v 0.160653 -0.552901 0.807659
v 0.136624 -0.703710 0.686857
v 0.107345 -0.827476 0.539660
v 0.073941 -0.919442 0.371725
v 0.037695 -0.976074 0.189504
v -0.000000 0.976074 0.193217
v 0.000000 0.919442 0.379007
v 0.000000 0.827475 0.550233
v -0.000000 0.703710 0.700314
v -0.000000 0.552901 0.823482
v 0.000000 0.380845 0.915004
v -0.000000 0.194153 0.971363
v -0.000000 0.000000 0.990393
v -0.000000 -0.194153 0.971363
v 0.000000 -0.380845 0.915004
v -0.000000 -0.552901 0.823482
v -0.000000 -0.703710 0.700314
v -0.000000 -0.827476 0.550233
v 0.000000 -0.919442 0.379007
v 0.000000 -0.976074 0.193216
v -0.037695 0.976074 0.189504
v -0.073941 0.919442 0.371725
v -0.107345 0.827475 0.539661
v -0.136624 0.703710 0.686857
v -0.160653 0.552901 0.807659
v -0.178508 0.380845 0.897422
v -0.189503 0.194153 0.952698
v -0.193216 0.000000 0.971363
v -0.189503 -0.194153 0.952698
v -0.178508 -0.380845 0.897422
v -0.160653 -0.552901 0.807659
v -0.136624 -0.703710 0.686857
v -0.107345 -0.827476 0.539660
v -0.073941 -0.919442 0.371725
v -0.037695 -0.976074 0.189504
v -0.073941 0.976074 0.178509
v -0.145040 0.919442 0.350157
v -0.210565 0.827475 0.508349
v -0.267998 0.703710 0.647005
v -0.315133 0.552901 0.760798
v -0.350157 0.380845 0.845353
v -0.371724 0.194153 0.897422
v -0.379007 0.000000 0.915004
v -0.371724 -0.194153 0.897422
v -0.350157 -0.380845 0.845353
v -0.315133 -0.552901 0.760798
v -0.267998 -0.703710 0.647005
v -0.210565 -0.827476 0.508349
v -0.145040 -0.919442 0.350157
v -0.073941 -0.976074 0.178509
v -0.107345 0.976074 0.160654
v -0.210565 0.919442 0.315133
v -0.305693 0.827475 0.457502
v -0.389073 0.703710 0.582290
v -0.457502 0.552901 0.684700
v -0.508349 0.380845 0.760798
v -0.539660 0.194153 0.807658
v -0.550233 0.000000 0.823482
v -0.539660 -0.194153 0.807658
v -0.508349 -0.380845 0.760798
v -0.457502 -0.552901 0.684700
v -0.389073 -0.703710 0.582289
v -0.305693 -0.827476 0.457502
v -0.210565 -0.919442 0.315133
v -0.107345 -0.976074 0.160654
v -0.000000 0.990393 0.000000
v -0.136624 0.976074 0.136625
v -0.267998 0.919442 0.267999
v -0.389073 0.827475 0.389074
v -0.495196 0.703710 0.495197
v -0.582289 0.552901 0.582289
v -0.647005 0.380845 0.647005
v -0.686857 0.194153 0.686857
v -0.700313 0.000000 0.700313
v -0.686857 -0.194153 0.686857
v -0.647005 -0.380845 0.647005
v -0.582289 -0.552901 0.582289
v -0.495196 -0.703710 0.495197
v -0.389073 -0.827476 0.389073
v -0.267998 -0.919442 0.267999
v -0.136624 -0.976074 0.136625
v -0.160653 0.976074 0.107345
v -0.315133 0.919442 0.210565
v -0.457502 0.827475 0.305693
v -0.582289 0.703710 0.389073
v -0.684700 0.552901 0.457502
v -0.760798 0.380845 0.508349
v -0.807658 0.194153 0.539660
v -0.823481 0.000000 0.550233
v -0.807658 -0.194153 0.539660
v -0.760798 -0.380845 0.508349
v -0.684700 -0.552901 0.457502
v -0.582289 -0.703710 0.389073
v -0.457502 -0.827476 0.305693
v -0.315133 -0.919442 0.210565
v -0.160653 -0.976074 0.107345
v -0.178508 0.976074 0.073941
v -0.350157 0.919442 0.145040
v -0.508349 0.827475 0.210565
v -0.647005 0.703710 0.267999
v -0.760797 0.552901 0.315133
v -0.845353 0.380845 0.350157
v -0.897422 0.194153 0.371724
v -0.915003 0.000000 0.379007
v -0.897422 -0.194153 0.371724
v -0.845353 -0.380845 0.350157
v -0.760797 -0.552901 0.315133
v -0.647005 -0.703710 0.267999
v -0.508349 -0.827476 0.210565
v -0.350157 -0.919442 0.145040
v -0.178508 -0.976074 0.073941
v -0.189504 0.976074 0.037695
v -0.371724 0.919442 0.073941
v -0.539660 0.827475 0.107345
v -0.686857 0.703710 0.136625
v -0.807658 0.552901 0.160653
v -0.897422 0.380845 0.178509
v -0.952698 0.194153 0.189504
v -0.971362 0.000000 0.193216
v -0.952698 -0.194153 0.189504
v -0.897422 -0.380845 0.178509
v -0.807658 -0.552901 0.160653
v -0.686857 -0.703710 0.136625
v -0.539660 -0.827476 0.107345
v -0.371724 -0.919442 0.073941
v -0.189503 -0.976074 0.037695
v -0.193216 0.976074 0.000000
v -0.379007 0.919442 0.000000
v -0.550233 0.827475 0.000000
v -0.700313 0.703710 0.000000
v -0.823481 0.552901 0.000000
v -0.915003 0.380845 0.000000
v -0.971362 0.194153 0.000000
v -0.990392 0.000000 0.000000
v -0.971362 -0.194153 0.000000
v -0.915003 -0.380845 0.000000
v -0.823481 -0.552901 0.000000
v -0.700313 -0.703710 0.000000
v -0.550233 -0.827476 0.000000
v -0.379007 -0.919442 0.000000
v -0.193216 -0.976074 0.000000
v -0.189504 0.976074 -0.037694
v -0.371724 0.919442 -0.073940
v -0.539660 0.827475 -0.107345
v -0.686857 0.703710 -0.136624
v -0.807658 0.552901 -0.160653
v -0.897422 0.380845 -0.178508
v -0.952698 0.194153 -0.189503
v -0.971362 0.000000 -0.193216
v -0.952698 -0.194153 -0.189503
v -0.897422 -0.380845 -0.178508
v -0.807658 -0.552901 -0.160653
v -0.686857 -0.703710 -0.136624
v -0.539660 -0.827476 -0.107345
v -0.371724 -0.919442 -0.073940
v -0.189503 -0.976074 -0.037694
v -0.178508 0.976074 -0.073940
v -0.350157 0.919442 -0.145039
v -0.508349 0.827475 -0.210565
v -0.647005 0.703710 -0.267998
v -0.760797 0.552901 -0.315132
v -0.845353 0.380845 -0.350156
v -0.897421 0.194153 -0.371724
v -0.915003 0.000000 -0.379007
v -0.897421 -0.194153 -0.371724
v -0.845353 -0.380845 -0.350156
v -0.760797 -0.552901 -0.315132
v -0.647005 -0.703710 -0.267998
v -0.508348 -0.827476 -0.210565
v -0.350156 -0.919442 -0.145039
v -0.178508 -0.976074 -0.073940
v -0.160653 0.976074 -0.107345
v -0.315133 0.919442 -0.210565
v -0.457502 0.827475 -0.305693
v -0.582289 0.703710 -0.389073
v -0.684699 0.552901 -0.457501
v -0.760797 0.380845 -0.508348
v -0.807658 0.194153 -0.539660
v -0.823481 0.000000 -0.550232
v -0.807658 -0.194153 -0.539660
v -0.760797 -0.380845 -0.508348
v -0.684699 -0.552901 -0.457501
v -0.582289 -0.703710 -0.389073
v -0.457502 -0.827476 -0.305693
v -0.315132 -0.919442 -0.210565
v -0.160653 -0.976074 -0.107345
v -0.136624 0.976074 -0.136624
v -0.267998 0.919442 -0.267998
v -0.389073 0.827475 -0.389073
v -0.495196 0.703710 -0.495196
v -0.582289 0.552901 -0.582289
v -0.647005 0.380845 -0.647005
v -0.686857 0.194153 -0.686857
v -0.700313 0.000000 -0.700313
v -0.686857 -0.194153 -0.686857
v -0.647005 -0.380845 -0.647005
v -0.582289 -0.552901 -0.582289
v -0.495196 -0.703710 -0.495196
v -0.389073 -0.827476 -0.389073
v -0.267998 -0.919442 -0.267998
v -0.136624 -0.976074 -0.136624
v -0.107345 0.976074 -0.160653
v -0.210565 0.919442 -0.315132
v -0.305693 0.827475 -0.457501
v -0.389073 0.703710 -0.582289
v -0.457501 0.552901 -0.684699
v -0.508348 0.380845 -0.760797
v -0.539660 0.194153 -0.807658
v -0.550232 0.000000 -0.823481
v -0.539660 -0.194153 -0.807658
v -0.508348 -0.380845 -0.760797
v -0.457501 -0.552901 -0.684699
v -0.389073 -0.703710 -0.582289
v -0.305693 -0.827476 -0.457501
v -0.210565 -0.919442 -0.315132
v -0.107345 -0.976074 -0.160653
v -0.073941 0.976074 -0.178508
v -0.145040 0.919442 -0.350156
v -0.210565 0.827475 -0.508348
v -0.267998 0.703710 -0.647005
v -0.315132 0.552901 -0.760797
v -0.350156 0.380845 -0.845352
v -0.371724 0.194153 -0.897421
v -0.379006 0.000000 -0.915003
v -0.371724 -0.194153 -0.897421
v -0.350156 -0.380845 -0.845352
v -0.315132 -0.552901 -0.760797
v -0.267998 -0.703710 -0.647005
v -0.210565 -0.827476 -0.508348
v -0.145040 -0.919442 -0.350156
v -0.073941 -0.976074 -0.178508
v -0.037695 0.976074 -0.189503
v -0.073940 0.919442 -0.371724
v -0.107345 0.827475 -0.539660
v -0.136624 0.703710 -0.686857
v -0.160653 0.552901 -0.807658
v -0.178508 0.380845 -0.897421
v -0.189503 0.194153 -0.952697
v -0.193216 0.000000 -0.971362
v -0.189503 -0.194153 -0.952697
v -0.178508 -0.380845 -0.897421
v -0.160653 -0.552901 -0.807658
v -0.136624 -0.703710 -0.686857
v -0.107345 -0.827476 -0.539660
v -0.073940 -0.919442 -0.371724
v -0.037695 -0.976074 -0.189503
v 0.000000 -0.380845 -0.915003
v 0.000000 -0.552901 -0.823481
v 0.000000 -0.703710 -0.700313
v 0.000000 -0.919442 -0.379006
v 0.000000 -0.976074 -0.193216
vn -0.0000 0.3790 -0.9254
vn 0.1628 0.5509 -0.8185
vn 0.1805 0.3790 -0.9076
vn -0.0000 -0.8274 -0.5616
vn 0.0760 -0.9210 -0.3820
vn -0.0000 -0.9210 -0.3894
vn -0.0000 0.1931 -0.9812
vn 0.1914 0.1931 -0.9623
vn 0.0372 -0.9817 -0.1869
vn -0.0000 -0.9817 -0.1905
vn -0.0000 -0.0000 -1.0000
vn 0.1951 -0.0000 -0.9808
vn -0.0000 0.9817 -0.1905
vn -0.0000 1.0000 -0.0000
vn 0.0372 0.9817 -0.1869
vn -0.0000 -1.0000 -0.0000
vn 0.1914 -0.1931 -0.9623
vn -0.0000 -0.1931 -0.9812
vn -0.0000 0.9210 -0.3894
vn 0.0760 0.9210 -0.3820
vn 0.1805 -0.3790 -0.9076
vn -0.0000 -0.3790 -0.9254
vn -0.0000 0.8274 -0.5616
vn 0.1096 0.8274 -0.5508
vn 0.1628 -0.5509 -0.8185
vn -0.0000 -0.5509 -0.8345
vn -0.0000 0.7024 -0.7118
vn 0.1389 0.7024 -0.6981
vn 0.1389 -0.7024 -0.6981
vn -0.0000 -0.7024 -0.7118
vn -0.0000 0.5509 -0.8345
vn 0.1096 -0.8274 -0.5508
vn 0.3194 0.5509 -0.7710
vn 0.2149 -0.8274 -0.5188
vn 0.3541 0.3790 -0.8550
vn 0.1490 -0.9210 -0.3598
vn 0.3755 0.1931 -0.9065
vn 0.0729 -0.9817 -0.1760
vn 0.3827 -0.0000 -0.9239
vn 0.0729 0.9817 -0.1760
vn 0.3755 -0.1931 -0.9065
vn 0.1490 0.9210 -0.3598
vn 0.3541 -0.3790 -0.8550
vn 0.2149 0.8274 -0.5188
vn 0.3194 -0.5509 -0.7710
vn 0.2724 0.7024 -0.6576
vn 0.2724 -0.7024 -0.6576
vn 0.5451 -0.1931 -0.8158
vn 0.2164 0.9210 -0.3238
vn 0.5141 -0.3790 -0.7694
vn 0.3120 0.8274 -0.4669
vn 0.4636 -0.5509 -0.6939
vn 0.3955 0.7024 -0.5918
vn 0.3955 -0.7024 -0.5918
vn 0.4636 0.5509 -0.6939
vn 0.3120 -0.8274 -0.4669
vn 0.5141 0.3790 -0.7694
vn 0.2164 -0.9210 -0.3238
vn 0.5451 0.1931 -0.8158
vn 0.1059 -0.9817 -0.1584
vn 0.5556 -0.0000 -0.8315
vn 0.1059 0.9817 -0.1584
vn 0.3971 -0.8274 -0.3971
vn 0.6544 0.3790 -0.6544
vn 0.2754 -0.9210 -0.2754
vn 0.6938 0.1931 -0.6938
vn 0.1347 -0.9817 -0.1347
vn 0.7071 -0.0000 -0.7071
vn 0.1347 0.9817 -0.1347
vn 0.6938 -0.1931 -0.6938
vn 0.2754 0.9210 -0.2754
vn 0.6544 -0.3790 -0.6544
vn 0.3971 0.8274 -0.3971
vn 0.5901 -0.5509 -0.5901
vn 0.5033 0.7024 -0.5033
vn 0.5033 -0.7024 -0.5033
vn 0.5901 0.5509 -0.5901
vn 0.3238 0.9210 -0.2164
vn 0.7694 -0.3790 -0.5141
vn 0.4669 0.8274 -0.3120
vn 0.6939 -0.5509 -0.4636
vn 0.5918 0.7024 -0.3955
vn 0.5918 -0.7024 -0.3955
vn 0.6939 0.5509 -0.4636
vn 0.4669 -0.8274 -0.3120
vn 0.7694 0.3790 -0.5141
vn 0.3238 -0.9210 -0.2164
vn 0.8158 0.1931 -0.5451
vn 0.1584 -0.9817 -0.1059
vn 0.8315 -0.0000 -0.5556
vn 0.1584 0.9817 -0.1059
vn 0.8158 -0.1931 -0.5451
vn 0.8550 0.3790 -0.3541
vn 0.5188 -0.8274 -0.2149
vn 0.3598 -0.9210 -0.1490
vn 0.9065 0.1931 -0.3755
vn 0.1760 -0.9817 -0.0729
vn 0.9239 -0.0000 -0.3827
vn 0.1760 0.9817 -0.0729
vn 0.9065 -0.1931 -0.3755
vn 0.3598 0.9210 -0.1490
vn 0.8550 -0.3790 -0.3541
vn 0.5188 0.8274 -0.2149
vn 0.7710 -0.5509 -0.3194
vn 0.6576 0.7024 -0.2724
vn 0.6576 -0.7024 -0.2724
vn 0.7710 0.5509 -0.3194
vn 0.9076 -0.3790 -0.1805
vn 0.5508 0.8274 -0.1096
vn 0.8185 -0.5509 -0.1628
vn 0.6981 0.7024 -0.1389
vn 0.6981 -0.7024 -0.1389
vn 0.8185 0.5509 -0.1628
vn 0.5508 -0.8274 -0.1096
vn 0.9076 0.3790 -0.1805
vn 0.3820 -0.9210 -0.0760
vn 0.9623 0.1931 -0.1914
vn 0.1869 -0.9817 -0.0372
vn 0.9808 -0.0000 -0.1951
vn 0.1869 0.9817 -0.0372
vn 0.9623 -0.1931 -0.1914
vn 0.3820 0.9210 -0.0760
vn 0.3894 -0.9210 -0.0000
vn 0.9812 0.1931 -0.0000
vn 0.1905 -0.9817 -0.0000
vn 1.0000 -0.0000 -0.0000
vn 0.1905 0.9817 -0.0000
vn 0.9812 -0.1931 -0.0000
vn 0.3894 0.9210 -0.0000
vn 0.9254 -0.3790 -0.0000
vn 0.5616 0.8274 -0.0000
vn 0.8345 -0.5509 -0.0000
vn 0.7118 0.7024 -0.0000
vn 0.7118 -0.7024 -0.0000
vn 0.8345 0.5509 -0.0000
vn 0.5616 -0.8274 -0.0000
vn 0.9254 0.3790 -0.0000
vn 0.9076 -0.3790 0.1805
vn 0.8185 -0.5509 0.1628
vn 0.5508 0.8274 0.1096
vn 0.6981 0.7024 0.1389
vn 0.6981 -0.7024 0.1389
vn 0.8185 0.5509 0.1628
vn 0.5508 -0.8274 0.1096
vn 0.9076 0.3790 0.1805
vn 0.3820 -0.9210 0.0760
vn 0.9623 0.1931 0.1914
vn 0.1869 -0.9817 0.0372
vn 0.9808 -0.0000 0.1951
vn 0.1869 0.9817 0.0372
vn 0.9623 -0.1931 0.1914
vn 0.3820 0.9210 0.0760
vn 0.1760 -0.9817 0.0729
vn 0.9065 0.1931 0.3755
vn 0.9239 -0.0000 0.3827
vn 0.1760 0.9817 0.0729
vn 0.9065 -0.1931 0.3755
vn 0.3598 0.9210 0.1490
vn 0.8550 -0.3790 0.3541
vn 0.5188 0.8274 0.2149
vn 0.7710 -0.5509 0.3194
vn 0.6576 0.7024 0.2724
vn 0.6576 -0.7024 0.2724
vn 0.7710 0.5509 0.3194
vn 0.5188 -0.8274 0.2149
vn 0.8550 0.3790 0.3541
vn 0.3598 -0.9210 0.1490
vn 0.4669 0.8274 0.3120
vn 0.5918 0.7024 0.3955
vn 0.6939 -0.5509 0.4636
vn 0.5918 -0.7024 0.3955
vn 0.6939 0.5509 0.4636
vn 0.4669 -0.8274 0.3120
vn 0.7694 0.3790 0.5141
vn 0.3238 -0.9210 0.2164
vn 0.8158 0.1931 0.5451
vn 0.1584 -0.9817 0.1059
vn 0.8315 -0.0000 0.5556
vn 0.1584 0.9817 0.1059
vn 0.8158 -0.1931 0.5451
vn 0.3238 0.9210 0.2164
vn 0.7694 -0.3790 0.5141
vn 0.7071 -0.0000 0.7071
vn 0.1347 0.9817 0.1347
vn 0.1347 -0.9817 0.1347
vn 0.6938 -0.1931 0.6938
vn 0.2754 0.9210 0.2754
vn 0.6544 -0.3790 0.6544
vn 0.3971 0.8274 0.3971
vn 0.5901 -0.5509 0.5901
vn 0.5033 0.7024 0.5033
vn 0.5033 -0.7024 0.5033
vn 0.5901 0.5509 0.5901
vn 0.3971 -0.8274 0.3971
vn 0.6544 0.3790 0.6544
vn 0.2754 -0.9210 0.2754
vn 0.6938 0.1931 0.6938
vn 0.4636 -0.5509 0.6939
vn 0.3955 -0.7024 0.5918
vn 0.4636 0.5509 0.6939
vn 0.3120 -0.8274 0.4669
vn 0.5141 0.3790 0.7694
vn 0.2164 -0.9210 0.3238
vn 0.5451 0.1931 0.8158
vn 0.1059 -0.9817 0.1584
vn 0.5556 -0.0000 0.8315
vn 0.1059 0.9817 0.1584
vn 0.5451 -0.1931 0.8158
vn 0.2164 0.9210 0.3238
vn 0.5141 -0.3790 0.7694
vn 0.3120 0.8274 0.4669
vn 0.3955 0.7024 0.5918
vn 0.0729 0.9817 0.1760
vn 0.0729 -0.9817 0.1760
vn 0.3827 -0.0000 0.9239
vn 0.3755 -0.1931 0.9065
vn 0.1490 0.9210 0.3598
vn 0.3541 -0.3790 0.8550
vn 0.2149 0.8274 0.5188
vn 0.3194 -0.5509 0.7710
vn 0.2724 0.7024 0.6576
vn 0.2724 -0.7024 0.6576
vn 0.3194 0.5509 0.7710
vn 0.2149 -0.8274 0.5188
vn 0.3541 0.3790 0.8550
vn 0.1490 -0.9210 0.3598
vn 0.3755 0.1931 0.9065
vn 0.1389 0.7024 0.6981
vn 0.1628 0.5509 0.8185
vn 0.1096 -0.8274 0.5508
vn 0.1805 0.3790 0.9076
vn 0.0760 -0.9210 0.3820
vn 0.1914 0.1931 0.9623
vn 0.0372 -0.9817 0.1869
vn 0.1951 -0.0000 0.9808
vn 0.0372 0.9817 0.1869
vn 0.1914 -0.1931 0.9623
vn 0.0760 0.9210 0.3820
vn 0.1805 -0.3790 0.9076
vn 0.1096 0.8274 0.5508
vn 0.1628 -0.5509 0.8185
vn 0.1389 -0.7024 0.6981
vn -0.0000 -0.1931 0.9812
vn -0.0000 0.9210 0.3894
vn -0.0000 -0.3790 0.9254
vn -0.0000 0.8274 0.5616
vn -0.0000 -0.5509 0.8345
vn -0.0000 0.7024 0.7118
vn -0.0000 -0.7024 0.7118
vn -0.0000 0.5509 0.8345
vn -0.0000 -0.8274 0.5616
vn -0.0000 0.3790 0.9254
vn -0.0000 -0.9210 0.3894
vn -0.0000 0.1931 0.9812
vn -0.0000 -0.9817 0.1905
vn -0.0000 -0.0000 1.0000
vn -0.0000 0.9817 0.1905
vn -0.1096 -0.8274 0.5508
vn -0.1805 0.3790 0.9076
vn -0.0760 -0.9210 0.3820
vn -0.1914 0.1931 0.9623
vn -0.0372 -0.9817 0.1869
vn -0.1951 -0.0000 0.9808
vn -0.0372 0.9817 0.1869
vn -0.1914 -0.1931 0.9623
vn -0.0760 0.9210 0.3820
vn -0.1805 -0.3790 0.9076
vn -0.1096 0.8274 0.5508
vn -0.1628 -0.5509 0.8185
vn -0.1389 0.7024 0.6981
vn -0.1389 -0.7024 0.6981
vn -0.1628 0.5509 0.8185
vn -0.3541 -0.3790 0.8550
vn -0.2149 0.8274 0.5188
vn -0.3194 -0.5509 0.7710
vn -0.2724 0.7024 0.6576
vn -0.2724 -0.7024 0.6576
vn -0.3194 0.5509 0.7710
vn -0.2149 -0.8274 0.5188
vn -0.3541 0.3790 0.8550
vn -0.1490 -0.9210 0.3598
vn -0.3755 0.1931 0.9065
vn -0.0729 -0.9817 0.1760
vn -0.3827 -0.0000 0.9239
vn -0.0729 0.9817 0.1760
vn -0.3755 -0.1931 0.9065
vn -0.1490 0.9210 0.3598
vn -0.2164 -0.9210 0.3238
vn -0.5141 0.3790 0.7694
vn -0.5451 0.1931 0.8158
vn -0.1059 -0.9817 0.1584
vn -0.5556 -0.0000 0.8315
vn -0.1059 0.9817 0.1584
vn -0.5451 -0.1931 0.8158
vn -0.2164 0.9210 0.3238
vn -0.5141 -0.3790 0.7694
vn -0.3120 0.8274 0.4669
vn -0.4636 -0.5509 0.6939
vn -0.3955 0.7024 0.5918
vn -0.3955 -0.7024 0.5918
vn -0.4636 0.5509 0.6939
vn -0.3120 -0.8274 0.4669
vn -0.3971 0.8274 0.3971
vn -0.6544 -0.3790 0.6544
vn -0.5901 -0.5509 0.5901
vn -0.5033 0.7024 0.5033
vn -0.5033 -0.7024 0.5033
vn -0.5901 0.5509 0.5901
vn -0.3971 -0.8274 0.3971
vn -0.6544 0.3790 0.6544
vn -0.2754 -0.9210 0.2754
vn -0.6938 0.1931 0.6938
vn -0.1347 -0.9817 0.1347
vn -0.7071 -0.0000 0.7071
vn -0.1347 0.9817 0.1347
vn -0.6938 -0.1931 0.6938
vn -0.2754 0.9210 0.2754
vn -0.7694 0.3790 0.5141
vn -0.8158 0.1931 0.5451
vn -0.1584 -0.9817 0.1059
vn -0.8315 -0.0000 0.5556
vn -0.1584 0.9817 0.1059
vn -0.8158 -0.1931 0.5451
vn -0.3238 0.9210 0.2164
vn -0.7694 -0.3790 0.5141
vn -0.4669 0.8274 0.3120
vn -0.6939 -0.5509 0.4636
vn -0.5918 0.7024 0.3955
vn -0.5918 -0.7024 0.3955
vn -0.6939 0.5509 0.4636
vn -0.4669 -0.8274 0.3120
vn -0.3238 -0.9210 0.2164
vn -0.8550 -0.3790 0.3541
vn -0.7710 -0.5509 0.3194
vn -0.6576 0.7024 0.2724
vn -0.6576 -0.7024 0.2724
vn -0.7710 0.5509 0.3194
vn -0.5188 -0.8274 0.2149
vn -0.8550 0.3790 0.3541
vn -0.3598 -0.9210 0.1490
vn -0.9065 0.1931 0.3755
vn -0.1760 -0.9817 0.0729
vn -0.9239 -0.0000 0.3827
vn -0.1760 0.9817 0.0729
vn -0.9065 -0.1931 0.3755
vn -0.3598 0.9210 0.1490
vn -0.5188 0.8274 0.2149
vn -0.3820 -0.9210 0.0760
vn -0.1869 -0.9817 0.0372
vn -0.9623 0.1931 0.1914
vn -0.9808 -0.0000 0.1951
vn -0.1869 0.9817 0.0372
vn -0.9623 -0.1931 0.1914
vn -0.3820 0.9210 0.0760
vn -0.9076 -0.3790 0.1805
vn -0.5508 0.8274 0.1096
vn -0.8185 -0.5509 0.1628
vn -0.6981 0.7024 0.1389
vn -0.6981 -0.7024 0.1389
vn -0.8185 0.5509 0.1628
vn -0.5508 -0.8274 0.1096
vn -0.9076 0.3790 0.1805
vn -0.7118 0.7024 -0.0000
vn -0.7118 -0.7024 -0.0000
vn -0.8345 0.5509 -0.0000
vn -0.5616 -0.8274 -0.0000
vn -0.9254 0.3790 -0.0000
vn -0.3894 -0.9210 -0.0000
vn -0.9812 0.1931 -0.0000
vn -0.1905 -0.9817 -0.0000
vn -1.0000 -0.0000 -0.0000
vn -0.1905 0.9817 -0.0000
vn -0.9812 -0.1931 -0.0000
vn -0.3894 0.9210 -0.0000
vn -0.9254 -0.3790 -0.0000
vn -0.5616 0.8274 -0.0000
vn -0.8345 -0.5509 -0.0000
vn -0.9808 -0.0000 -0.1951
vn -0.1869 0.9817 -0.0372
vn -0.1869 -0.9817 -0.0372
vn -0.9623 -0.1931 -0.1914
vn -0.3820 0.9210 -0.0760
vn -0.9076 -0.3790 -0.1805
vn -0.5508 0.8274 -0.1096
vn -0.8185 -0.5509 -0.1628
vn -0.6981 0.7024 -0.1389
vn -0.6981 -0.7024 -0.1389
vn -0.8185 0.5509 -0.1628
vn -0.5508 -0.8274 -0.1096
vn -0.9076 0.3790 -0.1805
vn -0.3820 -0.9210 -0.0760
vn -0.9623 0.1931 -0.1914
vn -0.7710 -0.5509 -0.3194
vn -0.6576 -0.7024 -0.2724
vn -0.7710 0.5509 -0.3194
vn -0.5188 -0.8274 -0.2149
vn -0.8550 0.3790 -0.3541
vn -0.3598 -0.9210 -0.1490
vn -0.9065 0.1931 -0.3755
vn -0.1760 -0.9817 -0.0729
vn -0.9239 -0.0000 -0.3827
vn -0.1760 0.9817 -0.0729
vn -0.9065 -0.1931 -0.3755
vn -0.3598 0.9210 -0.1490
vn -0.8550 -0.3790 -0.3541
vn -0.5188 0.8274 -0.2149
vn -0.6576 0.7024 -0.2724
vn -0.1584 -0.9817 -0.1059
vn -0.8158 -0.1931 -0.5451
vn -0.1584 0.9817 -0.1059
vn -0.3238 0.9210 -0.2164
vn -0.7694 -0.3790 -0.5141
vn -0.4669 0.8274 -0.3120
vn -0.6939 -0.5509 -0.4636
vn -0.5918 0.7024 -0.3955
vn -0.5918 -0.7024 -0.3955
vn -0.6939 0.5509 -0.4636
vn -0.4669 -0.8274 -0.3120
vn -0.7694 0.3790 -0.5141
vn -0.3238 -0.9210 -0.2164
vn -0.8158 0.1931 -0.5451
vn -0.8315 -0.0000 -0.5556
vn -0.3971 -0.8274 -0.3971
vn -0.6544 0.3790 -0.6544
vn -0.2754 -0.9210 -0.2754
vn -0.6938 0.1931 -0.6938
vn -0.1347 -0.9817 -0.1347
vn -0.7071 -0.0000 -0.7071
vn -0.1347 0.9817 -0.1347
vn -0.6938 -0.1931 -0.6938
vn -0.2754 0.9210 -0.2754
vn -0.6544 -0.3790 -0.6544
vn -0.3971 0.8274 -0.3971
vn -0.5901 -0.5509 -0.5901
vn -0.5033 0.7024 -0.5033
vn -0.5033 -0.7024 -0.5033
vn -0.5901 0.5509 -0.5901
vn -0.1059 0.9817 -0.1584
vn -0.2164 0.9210 -0.3238
vn -0.5141 -0.3790 -0.7694
vn -0.3120 0.8274 -0.4669
vn -0.4636 -0.5509 -0.6939
vn -0.3955 0.7024 -0.5918
vn -0.3955 -0.7024 -0.5918
vn -0.4636 0.5509 -0.6939
vn -0.3120 -0.8274 -0.4669
vn -0.5141 0.3790 -0.7694
vn -0.2164 -0.9210 -0.3238
vn -0.5451 0.1931 -0.8158
vn -0.1059 -0.9817 -0.1584
vn -0.5556 -0.0000 -0.8315
vn -0.5451 -0.1931 -0.8158
vn -0.3541 0.3790 -0.8550
vn -0.1490 -0.9210 -0.3598
vn -0.3755 0.1931 -0.9065
vn -0.0729 -0.9817 -0.1760
vn -0.3827 -0.0000 -0.9239
vn -0.0729 0.9817 -0.1760
vn -0.3755 -0.1931 -0.9065
vn -0.1490 0.9210 -0.3598
vn -0.3541 -0.3790 -0.8550
vn -0.2149 0.8274 -0.5188
vn -0.3194 -0.5509 -0.7710
vn -0.2724 0.7024 -0.6576
vn -0.2724 -0.7024 -0.6576
vn -0.3194 0.5509 -0.7710
vn -0.2149 -0.8274 -0.5188
vn -0.1805 -0.3790 -0.9076
vn -0.0760 0.9210 -0.3820
vn -0.1096 0.8274 -0.5508
vn -0.1628 -0.5509 -0.8185
vn -0.1389 0.7024 -0.6981
vn -0.1389 -0.7024 -0.6981
vn -0.1628 0.5509 -0.8185
vn -0.1096 -0.8274 -0.5508
vn -0.1805 0.3790 -0.9076
vn -0.0760 -0.9210 -0.3820
vn -0.1914 0.1931 -0.9623
vn -0.0372 -0.9817 -0.1869
vn -0.1951 -0.0000 -0.9808
vn -0.0372 0.9817 -0.1869
vn -0.1914 -0.1931 -0.9623
vt 0.750000 0.625000
vt 0.718750 0.687500
vt 0.718750 0.625000
vt 0.750000 0.187500
vt 0.718750 0.125000
vt 0.750000 0.125000
vt 0.750000 0.562500
vt 0.718750 0.562500
vt 0.718750 0.062500
vt 0.750000 0.062500
vt 0.750000 0.500000
vt 0.718750 0.500000
vt 0.750000 0.937500
vt 0.734375 1.000000
vt 0.718750 0.937500
vt 0.734375 0.000000
vt 0.718750 0.437500
vt 0.750000 0.437500
vt 0.750000 0.875000
vt 0.718750 0.875000
vt 0.718750 0.375000
vt 0.750000 0.375000
vt 0.750000 0.812500
vt 0.718750 0.812500
vt 0.718750 0.312500
vt 0.750000 0.312500
vt 0.750000 0.750000
vt 0.718750 0.750000
vt 0.718750 0.250000
vt 0.750000 0.250000
vt 0.750000 0.687500
vt 0.718750 0.187500
vt 0.687500 0.687500
vt 0.687500 0.187500
vt 0.687500 0.625000
vt 0.687500 0.125000
vt 0.687500 0.562500
vt 0.687500 0.062500
vt 0.687500 0.500000
vt 0.703125 1.000000
vt 0.687500 0.937500
vt 0.703125 0.000000
vt 0.687500 0.437500
vt 0.687500 0.875000
vt 0.687500 0.375000
vt 0.687500 0.812500
vt 0.687500 0.312500
vt 0.687500 0.750000
vt 0.687500 0.250000
vt 0.656250 0.437500
vt 0.656250 0.875000
vt 0.656250 0.375000
vt 0.656250 0.812500
vt 0.656250 0.312500
vt 0.656250 0.750000
vt 0.656250 0.250000
vt 0.656250 0.687500
vt 0.656250 0.187500
vt 0.656250 0.625000
vt 0.656250 0.125000
vt 0.656250 0.562500
vt 0.656250 0.062500
vt 0.656250 0.500000
vt 0.671875 1.000000
vt 0.656250 0.937500
vt 0.671875 0.000000
vt 0.625000 0.187500
vt 0.625000 0.625000
vt 0.625000 0.125000
vt 0.625000 0.562500
vt 0.625000 0.062500
vt 0.625000 0.500000
vt 0.640625 1.000000
vt 0.625000 0.937500
vt 0.640625 0.000000
vt 0.625000 0.437500
vt 0.625000 0.875000
vt 0.625000 0.375000
vt 0.625000 0.812500
vt 0.625000 0.312500
vt 0.625000 0.750000
vt 0.625000 0.250000
vt 0.625000 0.687500
vt 0.593750 0.875000
vt 0.593750 0.375000
vt 0.593750 0.812500
vt 0.593750 0.312500
vt 0.593750 0.750000
vt 0.593750 0.250000
vt 0.593750 0.687500
vt 0.593750 0.187500
vt 0.593750 0.625000
vt 0.593750 0.125000
vt 0.593750 0.562500
vt 0.593750 0.062500
vt 0.593750 0.500000
vt 0.609375 1.000000
vt 0.593750 0.937500
vt 0.609375 0.000000
vt 0.593750 0.437500
vt 0.562500 0.625000
vt 0.562500 0.187500
vt 0.562500 0.125000
vt 0.562500 0.562500
vt 0.562500 0.062500
vt 0.562500 0.500000
vt 0.578125 1.000000
vt 0.562500 0.937500
vt 0.578125 0.000000
vt 0.562500 0.437500
vt 0.562500 0.875000
vt 0.562500 0.375000
vt 0.562500 0.812500
vt 0.562500 0.312500
vt 0.562500 0.750000
vt 0.562500 0.250000
vt 0.562500 0.687500
vt 0.531250 0.375000
vt 0.531250 0.812500
vt 0.531250 0.312500
vt 0.531250 0.750000
vt 0.531250 0.250000
vt 0.531250 0.687500
vt 0.531250 0.187500
vt 0.531250 0.625000
vt 0.531250 0.125000
vt 0.531250 0.562500
vt 0.531250 0.062500
vt 0.531250 0.500000
vt 0.546875 1.000000
vt 0.531250 0.937500
vt 0.546875 0.000000
vt 0.531250 0.437500
vt 0.531250 0.875000
vt 0.500000 0.125000
vt 0.500000 0.562500
vt 0.500000 0.062500
vt 0.500000 0.500000
vt 0.515625 1.000000
vt 0.500000 0.937500
vt 0.515625 0.000000
vt 0.500000 0.437500
vt 0.500000 0.875000
vt 0.500000 0.375000
vt 0.500000 0.812500
vt 0.500000 0.312500
vt 0.500000 0.750000
vt 0.500000 0.250000
vt 0.500000 0.687500
vt 0.500000 0.187500
vt 0.500000 0.625000
vt 0.468750 0.375000
vt 0.468750 0.312500
vt 0.468750 0.812500
vt 0.468750 0.750000
vt 0.468750 0.250000
vt 0.468750 0.687500
vt 0.468750 0.187500
vt 0.468750 0.625000
vt 0.468750 0.125000
vt 0.468750 0.562500
vt 0.468750 0.062500
vt 0.468750 0.500000
vt 0.484374 1.000000
vt 0.468750 0.937500
vt 0.484375 0.000000
vt 0.468750 0.437500
vt 0.468750 0.875000
vt 0.437500 0.062500
vt 0.437500 0.562500
vt 0.437500 0.500000
vt 0.453124 1.000000
vt 0.437500 0.937500
vt 0.453125 0.000000
vt 0.437500 0.437500
vt 0.437500 0.875000
vt 0.437500 0.375000
vt 0.437500 0.812500
vt 0.437500 0.312500
vt 0.437500 0.750000
vt 0.437500 0.250000
vt 0.437500 0.687500
vt 0.437500 0.187500
vt 0.437500 0.625000
vt 0.437500 0.125000
vt 0.406250 0.812500
vt 0.406250 0.750000
vt 0.406250 0.312500
vt 0.406250 0.250000
vt 0.406250 0.687500
vt 0.406250 0.187500
vt 0.406250 0.625000
vt 0.406250 0.125000
vt 0.406250 0.562500
vt 0.406250 0.062500
vt 0.406250 0.500000
vt 0.421874 1.000000
vt 0.406250 0.937500
vt 0.421875 0.000000
vt 0.406250 0.437500
vt 0.406250 0.875000
vt 0.406250 0.375000
vt 0.375000 0.500000
vt 0.390625 1.000000
vt 0.375000 0.937500
vt 0.390625 0.000000
vt 0.375000 0.062500
vt 0.375000 0.437500
vt 0.375000 0.875000
vt 0.375000 0.375000
vt 0.375000 0.812500
vt 0.375000 0.312500
vt 0.375000 0.750000
vt 0.375000 0.250000
vt 0.375000 0.687500
vt 0.375000 0.187500
vt 0.375000 0.625000
vt 0.375000 0.125000
vt 0.375000 0.562500
vt 0.343750 0.312500
vt 0.343750 0.250000
vt 0.343750 0.687500
vt 0.343750 0.187500
vt 0.343750 0.625000
vt 0.343750 0.125000
vt 0.343750 0.562500
vt 0.343750 0.062500
vt 0.343750 0.500000
vt 0.359375 1.000000
vt 0.343750 0.937500
vt 0.359375 0.000000
vt 0.343750 0.437500
vt 0.343750 0.875000
vt 0.343750 0.375000
vt 0.343750 0.812500
vt 0.343750 0.750000
vt 0.328125 1.000000
vt 0.312500 0.937500
vt 0.328125 0.000000
vt 0.312500 0.062500
vt 0.312500 0.500000
vt 0.312500 0.437500
vt 0.312500 0.875000
vt 0.312500 0.375000
vt 0.312500 0.812500
vt 0.312500 0.312500
vt 0.312500 0.750000
vt 0.312500 0.250000
vt 0.312500 0.687500
vt 0.312500 0.187500
vt 0.312500 0.625000
vt 0.312500 0.125000
vt 0.312500 0.562500
vt 0.281250 0.750000
vt 0.281250 0.687500
vt 0.281250 0.187500
vt 0.281250 0.625000
vt 0.281250 0.125000
vt 0.281250 0.562500
vt 0.281250 0.062500
vt 0.281250 0.500000
vt 0.296875 1.000000
vt 0.281250 0.937500
vt 0.296875 0.000000
vt 0.281250 0.437500
vt 0.281250 0.875000
vt 0.281250 0.375000
vt 0.281250 0.812500
vt 0.281250 0.312500
vt 0.281250 0.250000
vt 0.250000 0.437500
vt 0.250000 0.875000
vt 0.250000 0.375000
vt 0.250000 0.812500
vt 0.250000 0.312500
vt 0.250000 0.750000
vt 0.250000 0.250000
vt 0.250000 0.687500
vt 0.250000 0.187500
vt 0.250000 0.625000
vt 0.250000 0.125000
vt 0.250000 0.562500
vt 0.250000 0.062500
vt 0.250000 0.500000
vt 0.265625 1.000000
vt 0.250000 0.937500
vt 0.265625 0.000000
vt 0.218750 0.187500
vt 0.218750 0.625000
vt 0.218750 0.125000
vt 0.218750 0.562500
vt 0.218750 0.062500
vt 0.218750 0.500000
vt 0.234375 1.000000
vt 0.218750 0.937500
vt 0.234375 0.000000
vt 0.218750 0.437500
vt 0.218750 0.875000
vt 0.218750 0.375000
vt 0.218750 0.812500
vt 0.218750 0.312500
vt 0.218750 0.750000
vt 0.218750 0.250000
vt 0.218750 0.687500
vt 0.187500 0.375000
vt 0.187500 0.812500
vt 0.187500 0.312500
vt 0.187500 0.750000
vt 0.187500 0.250000
vt 0.187500 0.687500
vt 0.187500 0.187500
vt 0.187500 0.625000
vt 0.187500 0.125000
vt 0.187500 0.562500
vt 0.187500 0.062500
vt 0.187500 0.500000
vt 0.203125 1.000000
vt 0.187500 0.937500
vt 0.203125 0.000000
vt 0.187500 0.437500
vt 0.187500 0.875000
vt 0.156250 0.125000
vt 0.156250 0.625000
vt 0.156250 0.562500
vt 0.156250 0.062500
vt 0.156250 0.500000
vt 0.171875 1.000000
vt 0.156250 0.937500
vt 0.171875 0.000000
vt 0.156250 0.437500
vt 0.156250 0.875000
vt 0.156250 0.375000
vt 0.156250 0.812500
vt 0.156250 0.312500
vt 0.156250 0.750000
vt 0.156250 0.250000
vt 0.156250 0.687500
vt 0.156250 0.187500
vt 0.125000 0.812500
vt 0.125000 0.375000
vt 0.125000 0.312500
vt 0.125000 0.750000
vt 0.125000 0.250000
vt 0.125000 0.687500
vt 0.125000 0.187500
vt 0.125000 0.625000
vt 0.125000 0.125000
vt 0.125000 0.562500
vt 0.125000 0.062500
vt 0.125000 0.500000
vt 0.140625 1.000000
vt 0.125000 0.937500
vt 0.140625 0.000000
vt 0.125000 0.437500
vt 0.125000 0.875000
vt 0.093750 0.625000
vt 0.093750 0.562500
vt 0.093750 0.062500
vt 0.093750 0.500000
vt 0.109375 1.000000
vt 0.093750 0.937500
vt 0.109375 0.000000
vt 0.093750 0.437500
vt 0.093750 0.875000
vt 0.093750 0.375000
vt 0.093750 0.812500
vt 0.093750 0.312500
vt 0.093750 0.750000
vt 0.093750 0.250000
vt 0.093750 0.687500
vt 0.093750 0.187500
vt 0.093750 0.125000
vt 0.062500 0.375000
vt 0.062500 0.312500
vt 0.062500 0.750000
vt 0.062500 0.250000
vt 0.062500 0.687500
vt 0.062500 0.187500
vt 0.062500 0.625000
vt 0.062500 0.125000
vt 0.062500 0.562500
vt 0.062500 0.062500
vt 0.062500 0.500000
vt 0.078125 1.000000
vt 0.062500 0.937500
vt 0.078125 0.000000
vt 0.062500 0.437500
vt 0.062500 0.875000
vt 0.062500 0.812500
vt 0.031250 0.125000
vt 0.031250 0.062500
vt 0.031250 0.562500
vt 0.031250 0.500000
vt 0.046875 1.000000
vt 0.031250 0.937500
vt 0.046875 0.000000
vt 0.031250 0.437500
vt 0.031250 0.875000
vt 0.031250 0.375000
vt 0.031250 0.812500
vt 0.031250 0.312500
vt 0.031250 0.750000
vt 0.031250 0.250000
vt 0.031250 0.687500
vt 0.031250 0.187500
vt 0.031250 0.625000
vt 0.000000 0.750000
vt 0.000000 0.250000
vt 0.000000 0.687500
vt 0.000000 0.187500
vt 0.000000 0.625000
vt 0.000000 0.125000
vt 0.000000 0.562500
vt 0.000000 0.062500
vt 0.000000 0.500000
vt 0.015625 1.000000
vt 0.000000 0.937500
vt 0.015625 0.000000
vt 0.000000 0.437500
vt 0.000000 0.875000
vt 0.000000 0.375000
vt 0.000000 0.812500
vt 0.000000 0.312500
vt 1.000000 0.562500
vt 0.968750 0.500000
vt 1.000000 0.500000
vt 1.000000 0.937500
vt 0.984375 1.000000
vt 0.968750 0.937500
vt 0.984375 0.000000
vt 1.000000 0.062500
vt 0.968750 0.062500
vt 1.000000 0.437500
vt 0.968750 0.437500
vt 1.000000 0.875000
vt 0.968750 0.875000
vt 0.968750 0.375000
vt 1.000000 0.375000
vt 0.968750 0.812500
vt 1.000000 0.812500
vt 1.000000 0.312500
vt 0.968750 0.312500
vt 0.968750 0.750000
vt 1.000000 0.750000
vt 1.000000 0.250000
vt 0.968750 0.250000
vt 0.968750 0.687500
vt 1.000000 0.687500
vt 1.000000 0.187500
vt 0.968750 0.187500
vt 0.968750 0.625000
vt 1.000000 0.625000
vt 0.968750 0.125000
vt 1.000000 0.125000
vt 0.968750 0.562500
vt 0.937500 0.312500
vt 0.937500 0.250000
vt 0.937500 0.687500
vt 0.937500 0.187500
vt 0.937500 0.625000
vt 0.937500 0.125000
vt 0.937500 0.562500
vt 0.937500 0.062500
vt 0.937500 0.500000
vt 0.953125 1.000000
vt 0.937500 0.937500
vt 0.953125 0.000000
vt 0.937500 0.437500
vt 0.937500 0.875000
vt 0.937500 0.375000
vt 0.937500 0.812500
vt 0.937500 0.750000
vt 0.921875 0.000000
vt 0.906250 0.062500
vt 0.906250 0.437500
vt 0.906250 0.937500
vt 0.906250 0.875000
vt 0.906250 0.375000
vt 0.906250 0.812500
vt 0.906250 0.312500
vt 0.906250 0.750000
vt 0.906250 0.250000
vt 0.906250 0.687500
vt 0.906250 0.187500
vt 0.906250 0.625000
vt 0.906250 0.125000
vt 0.906250 0.562500
vt 0.906250 0.500000
vt 0.921875 1.000000
vt 0.875000 0.187500
vt 0.875000 0.625000
vt 0.875000 0.125000
vt 0.875000 0.562500
vt 0.875000 0.062500
vt 0.875000 0.500000
vt 0.890625 1.000000
vt 0.875000 0.937500
vt 0.890625 0.000000
vt 0.875000 0.437500
vt 0.875000 0.875000
vt 0.875000 0.375000
vt 0.875000 0.812500
vt 0.875000 0.312500
vt 0.875000 0.750000
vt 0.875000 0.250000
vt 0.875000 0.687500
vt 0.843750 0.937500
vt 0.843750 0.875000
vt 0.843750 0.375000
vt 0.843750 0.812500
vt 0.843750 0.312500
vt 0.843750 0.750000
vt 0.843750 0.250000
vt 0.843750 0.687500
vt 0.843750 0.187500
vt 0.843750 0.625000
vt 0.843750 0.125000
vt 0.843750 0.562500
vt 0.843750 0.062500
vt 0.843750 0.500000
vt 0.859375 1.000000
vt 0.859375 0.000000
vt 0.843750 0.437500
vt 0.812500 0.625000
vt 0.812500 0.125000
vt 0.812500 0.562500
vt 0.812500 0.062500
vt 0.812500 0.500000
vt 0.828125 1.000000
vt 0.812500 0.937500
vt 0.828125 0.000000
vt 0.812500 0.437500
vt 0.812500 0.875000
vt 0.812500 0.375000
vt 0.812500 0.812500
vt 0.812500 0.312500
vt 0.812500 0.750000
vt 0.812500 0.250000
vt 0.812500 0.687500
vt 0.812500 0.187500
vt 0.781250 0.375000
vt 0.781250 0.875000
vt 0.781250 0.812500
vt 0.781250 0.312500
vt 0.781250 0.750000
vt 0.781250 0.250000
vt 0.781250 0.687500
vt 0.781250 0.187500
vt 0.781250 0.625000
vt 0.781250 0.125000
vt 0.781250 0.562500
vt 0.781250 0.062500
vt 0.781250 0.500000
vt 0.796875 1.000000
vt 0.781250 0.937500
vt 0.796875 0.000000
vt 0.781250 0.437500
vt 0.765625 1.000000
vt 0.765625 0.000000
s 1
usemtl shiny_yellow.001
f 6/1/1 15/2/2 16/3/3
f 10/4/4 24/5/5 481/6/6
f 7/7/7 16/3/3 17/8/8
f 481/6/6 25/9/9 482/10/10
f 8/11/11 17/8/8 18/12/12
f 1/13/13 297/14/14 11/15/15
f 206/16/16 482/10/10 25/9/9
f 2/19/19 11/15/15 12/20/20
f 9/18/18 20/21/21 478/22/22
f 3/23/23 12/20/20 13/24/24
f 478/22/22 21/25/25 479/26/26
f 4/27/27 13/24/24 14/28/28
f 479/26/26 22/29/29 480/30/30
f 480/30/30 23/32/32 10/4/4
f 14/28/28 30/33/33 15/2/2
f 22/29/29 38/34/34 23/32/32
f 15/2/2 31/35/35 16/3/3
f 23/32/32 39/36/36 24/5/5
f 16/3/3 32/37/37 17/8/8
f 24/5/5 40/38/38 25/9/9
f 17/8/8 33/39/39 18/12/12
f 11/15/15 297/40/14 26/41/40
f 206/42/16 25/9/9 40/38/38
f 18/12/12 34/43/41 19/17/17
f 11/15/15 27/44/42 12/20/20
f 12/20/20 28/46/44 13/24/24
f 21/25/25 35/45/43 36/47/45
f 13/24/24 29/48/46 14/28/28
f 21/25/25 37/49/47 22/29/29
f 33/39/39 49/50/48 34/43/41
f 26/41/40 42/51/49 27/44/42
f 28/46/44 42/51/49 43/53/51
f 36/47/45 50/52/50 51/54/52
f 29/48/46 43/53/51 44/55/53
f 36/47/45 52/56/54 37/49/47
f 29/48/46 45/57/55 30/33/33
f 37/49/47 53/58/56 38/34/34
f 30/33/33 46/59/57 31/35/35
f 38/34/34 54/60/58 39/36/36
f 31/35/35 47/61/59 32/37/37
f 39/36/36 55/62/60 40/38/38
f 33/39/39 47/61/59 48/63/61
f 26/41/40 297/64/14 41/65/62
f 206/66/16 40/38/38 55/62/60
f 52/56/54 68/67/63 53/58/56
f 45/57/55 61/68/64 46/59/57
f 54/60/58 68/67/63 69/69/65
f 47/61/59 61/68/64 62/70/66
f 54/60/58 70/71/67 55/62/60
f 47/61/59 63/72/68 48/63/61
f 41/65/62 297/73/14 56/74/69
f 206/75/16 55/62/60 70/71/67
f 48/63/61 64/76/70 49/50/48
f 41/65/62 57/77/71 42/51/49
f 42/51/49 58/79/73 43/53/51
f 50/52/50 66/80/74 51/54/52
f 43/53/51 59/81/75 44/55/53
f 51/54/52 67/82/76 52/56/54
f 44/55/53 60/83/77 45/57/55
f 56/74/69 72/84/78 57/77/71
f 64/76/70 80/85/79 65/78/72
f 58/79/73 72/84/78 73/86/80
f 66/80/74 80/85/79 81/87/81
f 58/79/73 74/88/82 59/81/75
f 67/82/76 81/87/81 82/89/83
f 68/67/63 82/89/83 83/91/85
f 60/83/77 76/92/86 61/68/64
f 68/67/63 84/93/87 69/69/65
f 62/70/66 76/92/86 77/94/88
f 69/69/65 85/95/89 70/71/67
f 63/72/68 77/94/88 78/96/90
f 56/74/69 297/97/14 71/98/91
f 206/99/16 70/71/67 85/95/89
f 75/90/84 91/101/93 76/92/86
f 84/93/87 98/102/94 99/103/95
f 77/94/88 91/101/93 92/104/96
f 85/95/89 99/103/95 100/105/97
f 77/94/88 93/106/98 78/96/90
f 71/98/91 297/107/14 86/108/99
f 206/109/16 85/95/89 100/105/97
f 71/98/91 87/111/101 72/84/78
f 79/100/92 95/112/102 80/85/79
f 72/84/78 88/113/103 73/86/80
f 81/87/81 95/112/102 96/114/104
f 73/86/80 89/115/105 74/88/82
f 81/87/81 97/116/106 82/89/83
f 75/90/84 89/115/105 90/117/107
f 82/89/83 98/102/94 83/91/85
f 94/110/100 110/118/108 95/112/102
f 87/111/101 103/119/109 88/113/103
f 96/114/104 110/118/108 111/120/110
f 88/113/103 104/121/111 89/115/105
f 96/114/104 112/122/112 97/116/106
f 89/115/105 105/123/113 90/117/107
f 98/102/94 112/122/112 113/124/114
f 90/117/107 106/125/115 91/101/93
f 99/103/95 113/124/114 114/126/116
f 91/101/93 107/127/117 92/104/96
f 99/103/95 115/128/118 100/105/97
f 86/108/99 297/130/14 101/131/120
f 206/132/16 100/105/97 115/128/118
f 93/106/98 109/133/121 94/110/100
f 86/108/99 102/134/122 87/111/101
f 113/124/114 129/135/123 114/126/116
f 106/125/115 122/136/124 107/127/117
f 115/128/118 129/135/123 130/137/125
f 107/127/117 123/138/126 108/129/119
f 101/131/120 297/139/14 116/140/127
f 206/141/16 115/128/118 130/137/125
f 108/129/119 124/142/128 109/133/121
f 101/131/120 117/143/129 102/134/122
f 109/133/121 125/144/130 110/118/108
f 102/134/122 118/145/131 103/119/109
f 110/118/108 126/146/132 111/120/110
f 103/119/109 119/147/133 104/121/111
f 111/120/110 127/148/134 112/122/112
f 104/121/111 120/149/135 105/123/113
f 113/124/114 127/148/134 128/150/136
f 105/123/113 121/151/137 106/125/115
f 126/146/132 140/152/138 141/153/139
f 119/147/133 133/154/140 134/155/141
f 127/148/134 141/153/139 142/156/142
f 119/147/133 135/157/143 120/149/135
f 128/150/136 142/156/142 143/158/144
f 120/149/135 136/159/145 121/151/137
f 128/150/136 144/160/146 129/135/123
f 122/136/124 136/159/145 137/161/147
f 130/137/125 144/160/146 145/162/148
f 122/136/124 138/163/149 123/138/126
f 116/140/127 297/164/14 131/165/150
f 206/166/16 130/137/125 145/162/148
f 123/138/126 139/167/151 124/142/128
f 116/140/127 132/168/152 117/143/129
f 124/142/128 140/152/138 125/144/130
f 118/145/131 132/168/152 133/154/140
f 144/160/146 160/169/153 145/162/148
f 138/163/149 152/170/154 153/171/155
f 131/165/150 297/172/14 146/173/156
f 206/174/16 145/162/148 160/169/153
f 138/163/149 154/175/157 139/167/151
f 131/165/150 147/176/158 132/168/152
f 139/167/151 155/177/159 140/152/138
f 132/168/152 148/178/160 133/154/140
f 141/153/139 155/177/159 156/179/161
f 133/154/140 149/180/162 134/155/141
f 141/153/139 157/181/163 142/156/142
f 134/155/141 150/182/164 135/157/143
f 142/156/142 158/183/165 143/158/144
f 135/157/143 151/184/166 136/159/145
f 143/158/144 159/185/167 144/160/146
f 137/161/147 151/184/166 152/170/154
f 149/180/162 163/186/168 164/187/169
f 157/181/163 171/188/170 172/189/171
f 149/180/162 165/190/172 150/182/164
f 158/183/165 172/189/171 173/191/173
f 150/182/164 166/192/174 151/184/166
f 159/185/167 173/191/173 174/193/175
f 152/170/154 166/192/174 167/194/176
f 159/185/167 175/195/177 160/169/153
f 152/170/154 168/196/178 153/171/155
f 146/173/156 297/197/14 161/198/179
f 206/199/16 160/169/153 175/195/177
f 154/175/157 168/196/178 169/200/180
f 146/173/156 162/201/181 147/176/158
f 154/175/157 170/202/182 155/177/159
f 147/176/158 163/186/168 148/178/160
f 156/179/161 170/202/182 171/188/170
f 167/194/176 183/203/183 168/196/178
f 161/198/179 297/204/14 176/205/184
f 206/206/16 175/195/177 190/207/185
f 169/200/180 183/203/183 184/208/186
f 161/198/179 177/209/187 162/201/181
f 169/200/180 185/210/188 170/202/182
f 162/201/181 178/211/189 163/186/168
f 171/188/170 185/210/188 186/212/190
f 163/186/168 179/213/191 164/187/169
f 172/189/171 186/212/190 187/214/192
f 165/190/172 179/213/191 180/215/193
f 173/191/173 187/214/192 188/216/194
f 165/190/172 181/217/195 166/192/174
f 174/193/175 188/216/194 189/218/196
f 167/194/176 181/217/195 182/219/197
f 175/195/177 189/218/196 190/207/185
f 187/214/192 201/220/198 202/221/199
f 179/213/191 195/222/200 180/215/193
f 187/214/192 203/223/201 188/216/194
f 180/215/193 196/224/202 181/217/195
f 189/218/196 203/223/201 204/225/203
f 182/219/197 196/224/202 197/226/204
f 189/218/196 205/227/205 190/207/185
f 182/219/197 198/228/206 183/203/183
f 176/205/184 297/229/14 191/230/207
f 206/231/16 190/207/185 205/227/205
f 184/208/186 198/228/206 199/232/208
f 176/205/184 192/233/209 177/209/187
f 184/208/186 200/234/210 185/210/188
f 177/209/187 193/235/211 178/211/189
f 186/212/190 200/234/210 201/220/198
f 178/211/189 194/236/212 179/213/191
f 191/230/207 297/237/14 207/238/213
f 206/239/16 205/227/205 221/240/214
f 199/232/208 214/241/215 215/242/216
f 191/230/207 208/243/217 192/233/209
f 199/232/208 216/244/218 200/234/210
f 193/235/211 208/243/217 209/245/219
f 201/220/198 216/244/218 217/246/220
f 193/235/211 210/247/221 194/236/212
f 202/221/199 217/246/220 218/248/222
f 194/236/212 211/249/223 195/222/200
f 203/223/201 218/248/222 219/250/224
f 195/222/200 212/251/225 196/224/202
f 204/225/203 219/250/224 220/252/226
f 197/226/204 212/251/225 213/253/227
f 205/227/205 220/252/226 221/240/214
f 197/226/204 214/241/215 198/228/206
f 211/249/223 225/254/228 226/255/229
f 218/248/222 234/256/230 219/250/224
f 211/249/223 227/257/231 212/251/225
f 219/250/224 235/258/232 220/252/226
f 213/253/227 227/257/231 228/259/233
f 220/252/226 236/260/234 221/240/214
f 214/241/215 228/259/233 229/261/235
f 207/238/213 297/262/14 222/263/236
f 206/264/16 221/240/214 236/260/234
f 214/241/215 230/265/237 215/242/216
f 207/238/213 223/266/238 208/243/217
f 215/242/216 231/267/239 216/244/218
f 208/243/217 224/268/240 209/245/219
f 217/246/220 231/267/239 232/269/241
f 209/245/219 225/254/228 210/247/221
f 217/246/220 233/270/242 218/248/222
f 229/261/235 245/271/243 230/265/237
f 222/263/236 238/272/244 223/266/238
f 230/265/237 246/273/245 231/267/239
f 223/266/238 239/274/246 224/268/240
f 232/269/241 246/273/245 247/275/247
f 225/254/228 239/274/246 240/276/248
f 232/269/241 248/277/249 233/270/242
f 225/254/228 241/278/250 226/255/229
f 234/256/230 248/277/249 249/279/251
f 226/255/229 242/280/252 227/257/231
f 234/256/230 250/281/253 235/258/232
f 228/259/233 242/280/252 243/282/254
f 236/260/234 250/281/253 251/283/255
f 229/261/235 243/282/254 244/284/256
f 222/263/236 297/285/14 237/286/257
f 206/287/16 236/260/234 251/283/255
f 248/277/249 264/288/258 249/279/251
f 241/278/250 257/289/259 242/280/252
f 250/281/253 264/288/258 265/290/260
f 243/282/254 257/289/259 258/291/261
f 251/283/255 265/290/260 266/292/262
f 244/284/256 258/291/261 259/293/263
f 237/286/257 297/294/14 252/295/264
f 206/296/16 251/283/255 266/292/262
f 244/284/256 260/297/265 245/271/243
f 237/286/257 253/298/266 238/272/244
f 245/271/243 261/299/267 246/273/245
f 238/272/244 254/300/268 239/274/246
f 247/275/247 261/299/267 262/301/269
f 240/276/248 254/300/268 255/302/270
f 248/277/249 262/301/269 263/303/271
f 240/276/248 256/304/272 241/278/250
f 260/297/265 276/305/273 261/299/267
f 253/298/266 269/306/274 254/300/268
f 262/301/269 276/305/273 277/307/275
f 255/302/270 269/306/274 270/308/276
f 263/303/271 277/307/275 278/309/277
f 255/302/270 271/310/278 256/304/272
f 263/303/271 279/311/279 264/288/258
f 256/304/272 272/312/280 257/289/259
f 265/290/260 279/311/279 280/313/281
f 258/291/261 272/312/280 273/314/282
f 266/292/262 280/313/281 281/315/283
f 258/291/261 274/316/284 259/293/263
f 252/295/264 297/317/14 267/318/285
f 206/319/16 266/292/262 281/315/283
f 259/293/263 275/320/286 260/297/265
f 252/295/264 268/321/287 253/298/266
f 279/311/279 295/322/288 280/313/281
f 273/314/282 287/323/289 288/324/290
f 280/313/281 296/325/291 281/315/283
f 274/316/284 288/324/290 289/326/292
f 267/318/285 297/327/14 282/328/293
f 206/329/16 281/315/283 296/325/291
f 274/316/284 290/330/294 275/320/286
f 267/318/285 283/331/295 268/321/287
f 275/320/286 291/332/296 276/305/273
f 268/321/287 284/333/297 269/306/274
f 277/307/275 291/332/296 292/334/298
f 269/306/274 285/335/299 270/308/276
f 277/307/275 293/336/300 278/309/277
f 271/310/278 285/335/299 286/337/301
f 279/311/279 293/336/300 294/338/302
f 271/310/278 287/323/289 272/312/280
f 283/331/295 300/339/303 284/333/297
f 292/334/298 307/340/304 308/341/305
f 284/333/297 301/342/306 285/335/299
f 292/334/298 309/343/307 293/336/300
f 286/337/301 301/342/306 302/344/308
f 293/336/300 310/345/309 294/338/302
f 286/337/301 303/346/310 287/323/289
f 295/322/288 310/345/309 311/347/311
f 288/324/290 303/346/310 304/348/312
f 296/325/291 311/347/311 312/349/313
f 288/324/290 305/350/314 289/326/292
f 282/328/293 297/351/14 298/352/315
f 206/353/16 296/325/291 312/349/313
f 289/326/292 306/354/316 290/330/294
f 282/328/293 299/355/317 283/331/295
f 290/330/294 307/340/304 291/332/296
f 304/348/312 318/356/318 319/357/319
f 311/347/311 327/358/320 312/349/313
f 305/350/314 319/357/319 320/359/321
f 298/352/315 297/360/14 313/361/322
f 206/362/16 312/349/313 327/358/320
f 305/350/314 321/363/323 306/354/316
f 298/352/315 314/364/324 299/355/317
f 306/354/316 322/365/325 307/340/304
f 299/355/317 315/366/326 300/339/303
f 308/341/305 322/365/325 323/367/327
f 300/339/303 316/368/328 301/342/306
f 308/341/305 324/369/329 309/343/307
f 301/342/306 317/370/330 302/344/308
f 310/345/309 324/369/329 325/371/331
f 303/346/310 317/370/330 318/356/318
f 310/345/309 326/372/332 311/347/311
f 323/367/327 337/373/333 338/374/334
f 315/366/326 331/375/335 316/368/328
f 323/367/327 339/376/336 324/369/329
f 317/370/330 331/375/335 332/377/337
f 325/371/331 339/376/336 340/378/338
f 317/370/330 333/379/339 318/356/318
f 326/372/332 340/378/338 341/380/340
f 319/357/319 333/379/339 334/381/341
f 327/358/320 341/380/340 342/382/342
f 319/357/319 335/383/343 320/359/321
f 313/361/322 297/384/14 328/385/344
f 206/386/16 327/358/320 342/382/342
f 320/359/321 336/387/345 321/363/323
f 314/364/324 328/385/344 329/388/346
f 321/363/323 337/373/333 322/365/325
f 315/366/326 329/388/346 330/389/347
f 342/382/342 356/390/348 357/391/349
f 335/383/343 349/392/350 350/393/351
f 328/385/344 297/394/14 343/395/352
f 206/396/16 342/382/342 357/391/349
f 335/383/343 351/397/353 336/387/345
f 328/385/344 344/398/354 329/388/346
f 336/387/345 352/399/355 337/373/333
f 329/388/346 345/400/356 330/389/347
f 338/374/334 352/399/355 353/401/357
f 331/375/335 345/400/356 346/402/358
f 339/376/336 353/401/357 354/403/359
f 331/375/335 347/404/360 332/377/337
f 339/376/336 355/405/361 340/378/338
f 332/377/337 348/406/362 333/379/339
f 340/378/338 356/390/348 341/380/340
f 334/381/341 348/406/362 349/392/350
f 345/400/356 361/407/363 346/402/358
f 353/401/357 369/408/364 354/403/359
f 346/402/358 362/409/365 347/404/360
f 354/403/359 370/410/366 355/405/361
f 347/404/360 363/411/367 348/406/362
f 355/405/361 371/412/368 356/390/348
f 349/392/350 363/411/367 364/413/369
f 356/390/348 372/414/370 357/391/349
f 349/392/350 365/415/371 350/393/351
f 343/395/352 297/416/14 358/417/372
f 206/418/16 357/391/349 372/414/370
f 350/393/351 366/419/373 351/397/353
f 343/395/352 359/420/374 344/398/354
f 351/397/353 367/421/375 352/399/355
f 345/400/356 359/420/374 360/422/376
f 353/401/357 367/421/375 368/423/377
f 364/424/369 380/425/378 365/426/371
f 358/427/372 297/428/14 373/429/379
f 206/430/16 372/431/370 387/432/380
f 366/433/373 380/425/378 381/434/381
f 359/435/374 373/429/379 374/436/382
f 366/433/373 382/437/383 367/438/375
f 359/435/374 375/439/384 360/440/376
f 368/441/377 382/437/383 383/442/385
f 360/440/376 376/443/386 361/444/363
f 369/445/364 383/442/385 384/446/387
f 361/444/363 377/447/388 362/448/365
f 370/449/366 384/446/387 385/450/389
f 362/448/365 378/451/390 363/452/367
f 370/449/366 386/453/391 371/454/368
f 364/424/369 378/451/390 379/455/392
f 372/431/370 386/453/391 387/432/380
f 384/446/387 398/456/393 399/457/394
f 376/443/386 392/458/395 377/447/388
f 384/446/387 400/459/396 385/450/389
f 377/447/388 393/460/397 378/451/390
f 386/453/391 400/459/396 401/461/398
f 379/455/392 393/460/397 394/462/399
f 386/453/391 402/463/400 387/432/380
f 380/425/378 394/462/399 395/464/401
f 373/429/379 297/465/14 388/466/402
f 206/467/16 387/432/380 402/463/400
f 380/425/378 396/468/403 381/434/381
f 373/429/379 389/469/404 374/436/382
f 381/434/381 397/470/405 382/437/383
f 374/436/382 390/471/406 375/439/384
f 383/442/385 397/470/405 398/456/393
f 375/439/384 391/472/407 376/443/386
f 206/473/16 402/463/400 417/474/408
f 395/464/401 411/475/409 396/468/403
f 389/469/404 403/476/410 404/477/411
f 396/468/403 412/478/412 397/470/405
f 389/469/404 405/479/413 390/471/406
f 398/456/393 412/478/412 413/480/414
f 391/472/407 405/479/413 406/481/415
f 398/456/393 414/482/416 399/457/394
f 392/458/395 406/481/415 407/483/417
f 399/457/394 415/484/418 400/459/396
f 392/458/395 408/485/419 393/460/397
f 400/459/396 416/486/420 401/461/398
f 394/462/399 408/485/419 409/487/421
f 401/461/398 417/474/408 402/463/400
f 394/462/399 410/488/422 395/464/401
f 388/466/402 297/489/14 403/476/410
f 414/482/416 430/490/423 415/484/418
f 407/483/417 423/491/424 408/485/419
f 416/486/420 430/490/423 431/492/425
f 409/487/421 423/491/424 424/493/426
f 416/486/420 432/494/427 417/474/408
f 409/487/421 425/495/428 410/488/422
f 403/476/410 297/496/14 418/497/429
f 206/498/16 417/474/408 432/494/427
f 411/475/409 425/495/428 426/499/430
f 403/476/410 419/500/431 404/477/411
f 411/475/409 427/501/432 412/478/412
f 404/477/411 420/502/433 405/479/413
f 413/480/414 427/501/432 428/503/434
f 405/479/413 421/504/435 406/481/415
f 413/480/414 429/505/436 414/482/416
f 407/483/417 421/504/435 422/506/437
f 419/500/431 433/507/438 434/508/439
f 426/499/430 442/509/440 427/501/432
f 419/500/431 435/510/441 420/502/433
f 428/503/434 442/509/440 443/511/442
f 420/502/433 436/512/443 421/504/435
f 428/503/434 444/513/444 429/505/436
f 422/506/437 436/512/443 437/514/445
f 429/505/436 445/515/446 430/490/423
f 422/506/437 438/516/447 423/491/424
f 431/492/425 445/515/446 446/517/448
f 424/493/426 438/516/447 439/518/449
f 431/492/425 447/519/450 432/494/427
f 425/495/428 439/518/449 440/520/451
f 418/497/429 297/521/14 433/507/438
f 206/522/16 432/494/427 447/519/450
f 425/495/428 441/523/452 426/499/430
f 437/514/445 453/524/453 438/516/447
f 445/515/446 461/525/454 446/517/448
f 439/518/449 453/524/453 454/526/455
f 446/517/448 462/527/456 447/519/450
f 439/518/449 455/528/457 440/520/451
f 433/507/438 297/529/14 448/530/458
f 206/531/16 447/519/450 462/527/456
f 440/520/451 456/532/459 441/523/452
f 433/507/438 449/533/460 434/508/439
f 441/523/452 457/534/461 442/509/440
f 434/508/439 450/535/462 435/510/441
f 443/511/442 457/534/461 458/536/463
f 436/512/443 450/535/462 451/537/464
f 443/511/442 459/538/465 444/513/444
f 436/512/443 452/539/466 437/514/445
f 445/515/446 459/538/465 460/540/467
f 456/532/459 472/541/468 457/534/461
f 450/535/462 464/542/469 465/543/470
f 458/536/463 472/541/468 473/544/471
f 450/535/462 466/545/472 451/537/464
f 458/536/463 474/546/473 459/538/465
f 452/539/466 466/545/472 467/547/474
f 459/538/465 475/548/475 460/540/467
f 452/539/466 468/549/476 453/524/453
f 461/525/454 475/548/475 476/550/477
f 454/526/455 468/549/476 469/551/478
f 461/525/454 477/552/479 462/527/456
f 448/530/458 297/554/14 463/555/481
f 206/556/16 462/527/456 477/552/479
f 455/528/457 471/557/482 456/532/459
f 449/533/460 463/555/481 464/542/469
f 475/548/475 481/6/6 476/550/477
f 469/551/478 6/1/1 7/7/7
f 476/550/477 482/10/10 477/552/479
f 470/553/480 7/7/7 8/11/11
f 463/555/481 297/558/14 1/13/13
f 206/559/16 477/552/479 482/10/10
f 464/542/469 1/13/13 2/19/19
f 471/557/482 478/22/22 472/541/468
f 465/543/470 2/19/19 3/23/23
f 473/544/471 478/22/22 479/26/26
f 466/545/472 3/23/23 4/27/27
f 473/544/471 480/30/30 474/546/473
f 467/547/474 4/27/27 5/31/31
f 474/546/473 10/4/4 475/548/475
f 468/549/476 5/31/31 6/1/1
f 6/1/1 5/31/31 15/2/2
f 10/4/4 23/32/32 24/5/5
f 7/7/7 6/1/1 16/3/3
f 481/6/6 24/5/5 25/9/9
f 8/11/11 7/7/7 17/8/8
f 2/19/19 1/13/13 11/15/15
f 9/18/18 19/17/17 20/21/21
f 3/23/23 2/19/19 12/20/20
f 478/22/22 20/21/21 21/25/25
f 4/27/27 3/23/23 13/24/24
f 479/26/26 21/25/25 22/29/29
f 480/30/30 22/29/29 23/32/32
f 14/28/28 29/48/46 30/33/33
f 22/29/29 37/49/47 38/34/34
f 15/2/2 30/33/33 31/35/35
f 23/32/32 38/34/34 39/36/36
f 16/3/3 31/35/35 32/37/37
f 24/5/5 39/36/36 40/38/38
f 17/8/8 32/37/37 33/39/39
f 18/12/12 33/39/39 34/43/41
f 11/15/15 26/41/40 27/44/42
f 12/20/20 27/44/42 28/46/44
f 21/25/25 20/21/21 35/45/43
f 13/24/24 28/46/44 29/48/46
f 21/25/25 36/47/45 37/49/47
f 33/39/39 48/63/61 49/50/48
f 26/41/40 41/65/62 42/51/49
f 28/46/44 27/44/42 42/51/49
f 36/47/45 35/45/43 50/52/50
f 29/48/46 28/46/44 43/53/51
f 36/47/45 51/54/52 52/56/54
f 29/48/46 44/55/53 45/57/55
f 37/49/47 52/56/54 53/58/56
f 30/33/33 45/57/55 46/59/57
f 38/34/34 53/58/56 54/60/58
f 31/35/35 46/59/57 47/61/59
f 39/36/36 54/60/58 55/62/60
f 33/39/39 32/37/37 47/61/59
f 52/56/54 67/82/76 68/67/63
f 45/57/55 60/83/77 61/68/64
f 54/60/58 53/58/56 68/67/63
f 47/61/59 46/59/57 61/68/64
f 54/60/58 69/69/65 70/71/67
f 47/61/59 62/70/66 63/72/68
f 48/63/61 63/72/68 64/76/70
f 41/65/62 56/74/69 57/77/71
f 42/51/49 57/77/71 58/79/73
f 50/52/50 65/78/72 66/80/74
f 43/53/51 58/79/73 59/81/75
f 51/54/52 66/80/74 67/82/76
f 44/55/53 59/81/75 60/83/77
f 56/74/69 71/98/91 72/84/78
f 64/76/70 79/100/92 80/85/79
f 58/79/73 57/77/71 72/84/78
f 66/80/74 65/78/72 80/85/79
f 58/79/73 73/86/80 74/88/82
f 67/82/76 66/80/74 81/87/81
f 68/67/63 67/82/76 82/89/83
f 60/83/77 75/90/84 76/92/86
f 68/67/63 83/91/85 84/93/87
f 62/70/66 61/68/64 76/92/86
f 69/69/65 84/93/87 85/95/89
f 63/72/68 62/70/66 77/94/88
f 75/90/84 90/117/107 91/101/93
f 84/93/87 83/91/85 98/102/94
f 77/94/88 76/92/86 91/101/93
f 85/95/89 84/93/87 99/103/95
f 77/94/88 92/104/96 93/106/98
f 71/98/91 86/108/99 87/111/101
f 79/100/92 94/110/100 95/112/102
f 72/84/78 87/111/101 88/113/103
f 81/87/81 80/85/79 95/112/102
f 73/86/80 88/113/103 89/115/105
f 81/87/81 96/114/104 97/116/106
f 75/90/84 74/88/82 89/115/105
f 82/89/83 97/116/106 98/102/94
f 94/110/100 109/133/121 110/118/108
f 87/111/101 102/134/122 103/119/109
f 96/114/104 95/112/102 110/118/108
f 88/113/103 103/119/109 104/121/111
f 96/114/104 111/120/110 112/122/112
f 89/115/105 104/121/111 105/123/113
f 98/102/94 97/116/106 112/122/112
f 90/117/107 105/123/113 106/125/115
f 99/103/95 98/102/94 113/124/114
f 91/101/93 106/125/115 107/127/117
f 99/103/95 114/126/116 115/128/118
f 93/106/98 108/129/119 109/133/121
f 86/108/99 101/131/120 102/134/122
f 113/124/114 128/150/136 129/135/123
f 106/125/115 121/151/137 122/136/124
f 115/128/118 114/126/116 129/135/123
f 107/127/117 122/136/124 123/138/126
f 108/129/119 123/138/126 124/142/128
f 101/131/120 116/140/127 117/143/129
f 109/133/121 124/142/128 125/144/130
f 102/134/122 117/143/129 118/145/131
f 110/118/108 125/144/130 126/146/132
f 103/119/109 118/145/131 119/147/133
f 111/120/110 126/146/132 127/148/134
f 104/121/111 119/147/133 120/149/135
f 113/124/114 112/122/112 127/148/134
f 105/123/113 120/149/135 121/151/137
f 126/146/132 125/144/130 140/152/138
f 119/147/133 118/145/131 133/154/140
f 127/148/134 126/146/132 141/153/139
f 119/147/133 134/155/141 135/157/143
f 128/150/136 127/148/134 142/156/142
f 120/149/135 135/157/143 136/159/145
f 128/150/136 143/158/144 144/160/146
f 122/136/124 121/151/137 136/159/145
f 130/137/125 129/135/123 144/160/146
f 122/136/124 137/161/147 138/163/149
f 123/138/126 138/163/149 139/167/151
f 116/140/127 131/165/150 132/168/152
f 124/142/128 139/167/151 140/152/138
f 118/145/131 117/143/129 132/168/152
f 144/160/146 159/185/167 160/169/153
f 138/163/149 137/161/147 152/170/154
f 138/163/149 153/171/155 154/175/157
f 131/165/150 146/173/156 147/176/158
f 139/167/151 154/175/157 155/177/159
f 132/168/152 147/176/158 148/178/160
f 141/153/139 140/152/138 155/177/159
f 133/154/140 148/178/160 149/180/162
f 141/153/139 156/179/161 157/181/163
f 134/155/141 149/180/162 150/182/164
f 142/156/142 157/181/163 158/183/165
f 135/157/143 150/182/164 151/184/166
f 143/158/144 158/183/165 159/185/167
f 137/161/147 136/159/145 151/184/166
f 149/180/162 148/178/160 163/186/168
f 157/181/163 156/179/161 171/188/170
f 149/180/162 164/187/169 165/190/172
f 158/183/165 157/181/163 172/189/171
f 150/182/164 165/190/172 166/192/174
f 159/185/167 158/183/165 173/191/173
f 152/170/154 151/184/166 166/192/174
f 159/185/167 174/193/175 175/195/177
f 152/170/154 167/194/176 168/196/178
f 154/175/157 153/171/155 168/196/178
f 146/173/156 161/198/179 162/201/181
f 154/175/157 169/200/180 170/202/182
f 147/176/158 162/201/181 163/186/168
f 156/179/161 155/177/159 170/202/182
f 167/194/176 182/219/197 183/203/183
f 169/200/180 168/196/178 183/203/183
f 161/198/179 176/205/184 177/209/187
f 169/200/180 184/208/186 185/210/188
f 162/201/181 177/209/187 178/211/189
f 171/188/170 170/202/182 185/210/188
f 163/186/168 178/211/189 179/213/191
f 172/189/171 171/188/170 186/212/190
f 165/190/172 164/187/169 179/213/191
f 173/191/173 172/189/171 187/214/192
f 165/190/172 180/215/193 181/217/195
f 174/193/175 173/191/173 188/216/194
f 167/194/176 166/192/174 181/217/195
f 175/195/177 174/193/175 189/218/196
f 187/214/192 186/212/190 201/220/198
f 179/213/191 194/236/212 195/222/200
f 187/214/192 202/221/199 203/223/201
f 180/215/193 195/222/200 196/224/202
f 189/218/196 188/216/194 203/223/201
f 182/219/197 181/217/195 196/224/202
f 189/218/196 204/225/203 205/227/205
f 182/219/197 197/226/204 198/228/206
f 184/208/186 183/203/183 198/228/206
f 176/205/184 191/230/207 192/233/209
f 184/208/186 199/232/208 200/234/210
f 177/209/187 192/233/209 193/235/211
f 186/212/190 185/210/188 200/234/210
f 178/211/189 193/235/211 194/236/212
f 199/232/208 198/228/206 214/241/215
f 191/230/207 207/238/213 208/243/217
f 199/232/208 215/242/216 216/244/218
f 193/235/211 192/233/209 208/243/217
f 201/220/198 200/234/210 216/244/218
f 193/235/211 209/245/219 210/247/221
f 202/221/199 201/220/198 217/246/220
f 194/236/212 210/247/221 211/249/223
f 203/223/201 202/221/199 218/248/222
f 195/222/200 211/249/223 212/251/225
f 204/225/203 203/223/201 219/250/224
f 197/226/204 196/224/202 212/251/225
f 205/227/205 204/225/203 220/252/226
f 197/226/204 213/253/227 214/241/215
f 211/249/223 210/247/221 225/254/228
f 218/248/222 233/270/242 234/256/230
f 211/249/223 226/255/229 227/257/231
f 219/250/224 234/256/230 235/258/232
f 213/253/227 212/251/225 227/257/231
f 220/252/226 235/258/232 236/260/234
f 214/241/215 213/253/227 228/259/233
f 214/241/215 229/261/235 230/265/237
f 207/238/213 222/263/236 223/266/238
f 215/242/216 230/265/237 231/267/239
f 208/243/217 223/266/238 224/268/240
f 217/246/220 216/244/218 231/267/239
f 209/245/219 224/268/240 225/254/228
f 217/246/220 232/269/241 233/270/242
f 229/261/235 244/284/256 245/271/243
f 222/263/236 237/286/257 238/272/244
f 230/265/237 245/271/243 246/273/245
f 223/266/238 238/272/244 239/274/246
f 232/269/241 231/267/239 246/273/245
f 225/254/228 224/268/240 239/274/246
f 232/269/241 247/275/247 248/277/249
f 225/254/228 240/276/248 241/278/250
f 234/256/230 233/270/242 248/277/249
f 226/255/229 241/278/250 242/280/252
f 234/256/230 249/279/251 250/281/253
f 228/259/233 227/257/231 242/280/252
f 236/260/234 235/258/232 250/281/253
f 229/261/235 228/259/233 243/282/254
f 248/277/249 263/303/271 264/288/258
f 241/278/250 256/304/272 257/289/259
f 250/281/253 249/279/251 264/288/258
f 243/282/254 242/280/252 257/289/259
f 251/283/255 250/281/253 265/290/260
f 244/284/256 243/282/254 258/291/261
f 244/284/256 259/293/263 260/297/265
f 237/286/257 252/295/264 253/298/266
f 245/271/243 260/297/265 261/299/267
f 238/272/244 253/298/266 254/300/268
f 247/275/247 246/273/245 261/299/267
f 240/276/248 239/274/246 254/300/268
f 248/277/249 247/275/247 262/301/269
f 240/276/248 255/302/270 256/304/272
f 260/297/265 275/320/286 276/305/273
f 253/298/266 268/321/287 269/306/274
f 262/301/269 261/299/267 276/305/273
f 255/302/270 254/300/268 269/306/274
f 263/303/271 262/301/269 277/307/275
f 255/302/270 270/308/276 271/310/278
f 263/303/271 278/309/277 279/311/279
f 256/304/272 271/310/278 272/312/280
f 265/290/260 264/288/258 279/311/279
f 258/291/261 257/289/259 272/312/280
f 266/292/262 265/290/260 280/313/281
f 258/291/261 273/314/282 274/316/284
f 259/293/263 274/316/284 275/320/286
f 252/295/264 267/318/285 268/321/287
f 279/311/279 294/338/302 295/322/288
f 273/314/282 272/312/280 287/323/289
f 280/313/281 295/322/288 296/325/291
f 274/316/284 273/314/282 288/324/290
f 274/316/284 289/326/292 290/330/294
f 267/318/285 282/328/293 283/331/295
f 275/320/286 290/330/294 291/332/296
f 268/321/287 283/331/295 284/333/297
f 277/307/275 276/305/273 291/332/296
f 269/306/274 284/333/297 285/335/299
f 277/307/275 292/334/298 293/336/300
f 271/310/278 270/308/276 285/335/299
f 279/311/279 278/309/277 293/336/300
f 271/310/278 286/337/301 287/323/289
f 283/331/295 299/355/317 300/339/303
f 292/334/298 291/332/296 307/340/304
f 284/333/297 300/339/303 301/342/306
f 292/334/298 308/341/305 309/343/307
f 286/337/301 285/335/299 301/342/306
f 293/336/300 309/343/307 310/345/309
f 286/337/301 302/344/308 303/346/310
f 295/322/288 294/338/302 310/345/309
f 288/324/290 287/323/289 303/346/310
f 296/325/291 295/322/288 311/347/311
f 288/324/290 304/348/312 305/350/314
f 289/326/292 305/350/314 306/354/316
f 282/328/293 298/352/315 299/355/317
f 290/330/294 306/354/316 307/340/304
f 304/348/312 303/346/310 318/356/318
f 311/347/311 326/372/332 327/358/320
f 305/350/314 304/348/312 319/357/319
f 305/350/314 320/359/321 321/363/323
f 298/352/315 313/361/322 314/364/324
f 306/354/316 321/363/323 322/365/325
f 299/355/317 314/364/324 315/366/326
f 308/341/305 307/340/304 322/365/325
f 300/339/303 315/366/326 316/368/328
f 308/341/305 323/367/327 324/369/329
f 301/342/306 316/368/328 317/370/330
f 310/345/309 309/343/307 324/369/329
f 303/346/310 302/344/308 317/370/330
f 310/345/309 325/371/331 326/372/332
f 323/367/327 322/365/325 337/373/333
f 315/366/326 330/389/347 331/375/335
f 323/367/327 338/374/334 339/376/336
f 317/370/330 316/368/328 331/375/335
f 325/371/331 324/369/329 339/376/336
f 317/370/330 332/377/337 333/379/339
f 326/372/332 325/371/331 340/378/338
f 319/357/319 318/356/318 333/379/339
f 327/358/320 326/372/332 341/380/340
f 319/357/319 334/381/341 335/383/343
f 320/359/321 335/383/343 336/387/345
f 314/364/324 313/361/322 328/385/344
f 321/363/323 336/387/345 337/373/333
f 315/366/326 314/364/324 329/388/346
f 342/382/342 341/380/340 356/390/348
f 335/383/343 334/381/341 349/392/350
f 335/383/343 350/393/351 351/397/353
f 328/385/344 343/395/352 344/398/354
f 336/387/345 351/397/353 352/399/355
f 329/388/346 344/398/354 345/400/356
f 338/374/334 337/373/333 352/399/355
f 331/375/335 330/389/347 345/400/356
f 339/376/336 338/374/334 353/401/357
f 331/375/335 346/402/358 347/404/360
f 339/376/336 354/403/359 355/405/361
f 332/377/337 347/404/360 348/406/362
f 340/378/338 355/405/361 356/390/348
f 334/381/341 333/379/339 348/406/362
f 345/400/356 360/422/376 361/407/363
f 353/401/357 368/423/377 369/408/364
f 346/402/358 361/407/363 362/409/365
f 354/403/359 369/408/364 370/410/366
f 347/404/360 362/409/365 363/411/367
f 355/405/361 370/410/366 371/412/368
f 349/392/350 348/406/362 363/411/367
f 356/390/348 371/412/368 372/414/370
f 349/392/350 364/413/369 365/415/371
f 350/393/351 365/415/371 366/419/373
f 343/395/352 358/417/372 359/420/374
f 351/397/353 366/419/373 367/421/375
f 345/400/356 344/398/354 359/420/374
f 353/401/357 352/399/355 367/421/375
f 364/424/369 379/455/392 380/425/378
f 366/433/373 365/426/371 380/425/378
f 359/435/374 358/427/372 373/429/379
f 366/433/373 381/434/381 382/437/383
f 359/435/374 374/436/382 375/439/384
f 368/441/377 367/438/375 382/437/383
f 360/440/376 375/439/384 376/443/386
f 369/445/364 368/441/377 383/442/385
f 361/444/363 376/443/386 377/447/388
f 370/449/366 369/445/364 384/446/387
f 362/448/365 377/447/388 378/451/390
f 370/449/366 385/450/389 386/453/391
f 364/424/369 363/452/367 378/451/390
f 372/431/370 371/454/368 386/453/391
f 384/446/387 383/442/385 398/456/393
f 376/443/386 391/472/407 392/458/395
f 384/446/387 399/457/394 400/459/396
f 377/447/388 392/458/395 393/460/397
f 386/453/391 385/450/389 400/459/396
f 379/455/392 378/451/390 393/460/397
f 386/453/391 401/461/398 402/463/400
f 380/425/378 379/455/392 394/462/399
f 380/425/378 395/464/401 396/468/403
f 373/429/379 388/466/402 389/469/404
f 381/434/381 396/468/403 397/470/405
f 374/436/382 389/469/404 390/471/406
f 383/442/385 382/437/383 397/470/405
f 375/439/384 390/471/406 391/472/407
f 395/464/401 410/488/422 411/475/409
f 389/469/404 388/466/402 403/476/410
f 396/468/403 411/475/409 412/478/412
f 389/469/404 404/477/411 405/479/413
f 398/456/393 397/470/405 412/478/412
f 391/472/407 390/471/406 405/479/413
f 398/456/393 413/480/414 414/482/416
f 392/458/395 391/472/407 406/481/415
f 399/457/394 414/482/416 415/484/418
f 392/458/395 407/483/417 408/485/419
f 400/459/396 415/484/418 416/486/420
f 394/462/399 393/460/397 408/485/419
f 401/461/398 416/486/420 417/474/408
f 394/462/399 409/487/421 410/488/422
f 414/482/416 429/505/436 430/490/423
f 407/483/417 422/506/437 423/491/424
f 416/486/420 415/484/418 430/490/423
f 409/487/421 408/485/419 423/491/424
f 416/486/420 431/492/425 432/494/427
f 409/487/421 424/493/426 425/495/428
f 411/475/409 410/488/422 425/495/428
f 403/476/410 418/497/429 419/500/431
f 411/475/409 426/499/430 427/501/432
f 404/477/411 419/500/431 420/502/433
f 413/480/414 412/478/412 427/501/432
f 405/479/413 420/502/433 421/504/435
f 413/480/414 428/503/434 429/505/436
f 407/483/417 406/481/415 421/504/435
f 419/500/431 418/497/429 433/507/438
f 426/499/430 441/523/452 442/509/440
f 419/500/431 434/508/439 435/510/441
f 428/503/434 427/501/432 442/509/440
f 420/502/433 435/510/441 436/512/443
f 428/503/434 443/511/442 444/513/444
f 422/506/437 421/504/435 436/512/443
f 429/505/436 444/513/444 445/515/446
f 422/506/437 437/514/445 438/516/447
f 431/492/425 430/490/423 445/515/446
f 424/493/426 423/491/424 438/516/447
f 431/492/425 446/517/448 447/519/450
f 425/495/428 424/493/426 439/518/449
f 425/495/428 440/520/451 441/523/452
f 437/514/445 452/539/466 453/524/453
f 445/515/446 460/540/467 461/525/454
f 439/518/449 438/516/447 453/524/453
f 446/517/448 461/525/454 462/527/456
f 439/518/449 454/526/455 455/528/457
f 440/520/451 455/528/457 456/532/459
f 433/507/438 448/530/458 449/533/460
f 441/523/452 456/532/459 457/534/461
f 434/508/439 449/533/460 450/535/462
f 443/511/442 442/509/440 457/534/461
f 436/512/443 435/510/441 450/535/462
f 443/511/442 458/536/463 459/538/465
f 436/512/443 451/537/464 452/539/466
f 445/515/446 444/513/444 459/538/465
f 456/532/459 471/557/482 472/541/468
f 450/535/462 449/533/460 464/542/469
f 458/536/463 457/534/461 472/541/468
f 450/535/462 465/543/470 466/545/472
f 458/536/463 473/544/471 474/546/473
f 452/539/466 451/537/464 466/545/472
f 459/538/465 474/546/473 475/548/475
f 452/539/466 467/547/474 468/549/476
f 461/525/454 460/540/467 475/548/475
f 454/526/455 453/524/453 468/549/476
f 461/525/454 476/550/477 477/552/479
f 455/528/457 470/553/480 471/557/482
f 449/533/460 448/530/458 463/555/481
f 475/548/475 10/4/4 481/6/6
f 469/551/478 468/549/476 6/1/1
f 476/550/477 481/6/6 482/10/10
f 470/553/480 469/551/478 7/7/7
f 464/542/469 463/555/481 1/13/13
f 471/557/482 9/18/18 478/22/22
f 465/543/470 464/542/469 2/19/19
f 473/544/471 472/541/468 478/22/22
f 466/545/472 465/543/470 3/23/23
f 473/544/471 479/26/26 480/30/30
f 467/547/474 466/545/472 4/27/27
f 474/546/473 480/30/30 10/4/4
f 468/549/476 467/547/474 5/31/31
usemtl smile
f 8/11/11 19/17/17 9/18/18
f 5/31/31 14/28/28 15/2/2
f 19/17/17 35/45/43 20/21/21
f 34/43/41 50/52/50 35/45/43
f 49/50/48 65/78/72 50/52/50
f 59/81/75 75/90/84 60/83/77
f 63/72/68 79/100/92 64/76/70
f 78/96/90 94/110/100 79/100/92
f 92/104/96 108/129/119 93/106/98
f 455/528/457 469/551/478 470/553/480
f 470/553/480 9/18/18 471/557/482
f 8/11/11 18/12/12 19/17/17
f 5/31/31 4/27/27 14/28/28
f 19/17/17 34/43/41 35/45/43
f 34/43/41 49/50/48 50/52/50
f 49/50/48 64/76/70 65/78/72
f 59/81/75 74/88/82 75/90/84
f 63/72/68 78/96/90 79/100/92
f 78/96/90 93/106/98 94/110/100
f 92/104/96 107/127/117 108/129/119
f 455/528/457 454/526/455 469/551/478
f 470/553/480 8/11/11 9/18/18
